SplineFontDB: 3.0
FontName: Comme-Regular
FullName: Comme Regular
FamilyName: Comme
Weight: Normal
ItalicAngle: 0
UnderlinePosition: 0
UnderlineWidth: 0
Ascent: 1638
Descent: 410
UFOAscent: 1560
UFODescent: -556
LayerCount: 2
Layer: 0 0 "Back"  1
Layer: 1 0 "Fore"  0
OS2Version: 0
OS2_WeightWidthSlopeOnly: 0
OS2_UseTypoMetrics: 0
CreationTime: 1391205921
ModificationTime: 1391206048
PfmFamily: 0
TTFWeight: 394
TTFWidth: 5
LineGap: 0
VLineGap: 0
OS2TypoAscent: 0
OS2TypoAOffset: 1
OS2TypoDescent: 0
OS2TypoDOffset: 1
OS2TypoLinegap: 0
OS2WinAscent: 0
OS2WinAOffset: 1
OS2WinDescent: 0
OS2WinDOffset: 1
HheadAscent: 0
HheadAOffset: 1
HheadDescent: 0
HheadDOffset: 1
OS2Vendor: 'NeWT'
Lookup: 4 0 1 "ligaStandardLigatureslookup0"  {"ligaStandardLigatureslookup0 subtable"  } ['liga' ('latn' <'dflt' > 'grek' <'dflt' > 'DFLT' <'dflt' > ) ]
Lookup: 1 0 0 "'locl' Localized Forms in Latin lookup 1"  {"'locl' Localized Forms in Latin lookup 1 subtable"  } ['locl' ('latn' <'ROM ' 'dflt' > ) ]
Lookup: 1 0 0 "'locl' Localized Forms in Latin lookup 2"  {"'locl' Localized Forms in Latin lookup 2 subtable"  } ['locl' ('latn' <'CRT ' 'dflt' > ) ]
Lookup: 1 0 0 "'locl' Localized Forms in Latin lookup 3"  {"'locl' Localized Forms in Latin lookup 3 subtable"  } ['locl' ('latn' <'MOL ' 'dflt' > ) ]
Lookup: 1 0 0 "'locl' Localized Forms in Latin lookup 4"  {"'locl' Localized Forms in Latin lookup 4 subtable"  } ['locl' ('latn' <'TAT ' 'dflt' > ) ]
Lookup: 1 0 0 "'locl' Localized Forms in Latin lookup 5"  {"'locl' Localized Forms in Latin lookup 5 subtable"  } ['locl' ('latn' <'KAZ ' 'dflt' > ) ]
Lookup: 6 0 0 "'locl' Localized Forms in Latin lookup 6"  {"'locl' Localized Forms in Latin lookup 6 contextual 0"  "'locl' Localized Forms in Latin lookup 6 contextual 1"  } ['locl' ('latn' <'CAT ' 'dflt' > ) ]
Lookup: 4 0 0 "Ligature Substitution lookup 7"  {"Ligature Substitution lookup 7 subtable"  } []

StartChar: A
Encoding: 65 65 0
Width: 1413
VWidth: 0
Flags: HW
PickledData: "(dp1
S'org.pippin.gimp.org.kernagic'
p2
(dp3
S'lstem'
p4
I0
sS'rstem'
p5
I0
ssS'com.typemytype.robofont.layerData'
p6
(dp7
sS'org.robofab.postScriptHintData'
p8
(dp9
s."
AnchorPoint: "bot" 705 0 basechar 0
AnchorPoint: "ogonek" 1241 0 basechar 0
AnchorPoint: "top" 703 1456 basechar 0
LayerCount: 2
Fore
SplineSet
463 588 m 1
 949 588 l 1
 705 1271 l 1
 463 588 l 1
62 0 m 1
 608 1456 l 1
 801 1456 l 1
 1351 0 l 1
 1162 0 l 1
 993 455 l 1
 419 455 l 1
 250 0 l 1
 62 0 l 1
EndSplineSet
Substitution2: "Single Substitution lookup 13 subtable" ordfeminine
EndChar

StartChar: AE
Encoding: 198 198 1
Width: 1619
VWidth: 0
Flags: HW
PickledData: "(dp1
S'org.pippin.gimp.org.kernagic'
p2
(dp3
S'lstem'
p4
I0
sS'rstem'
p5
I0
ssS'com.typemytype.robofont.layerData'
p6
(dp7
sS'org.robofab.postScriptHintData'
p8
(dp9
s."
LayerCount: 2
Fore
SplineSet
426 594 m 1
 791 594 l 1
 791 1294 l 1
 426 594 l 1
-88 0 m 1
 697 1456 l 1
 1563 1456 l 1
 1556 1314 l 1
 968 1314 l 1
 968 832 l 1
 1497 832 l 1
 1497 690 l 1
 968 690 l 1
 968 144 l 1
 1578 144 l 1
 1566 0 l 1
 791 0 l 1
 791 464 l 1
 360 464 l 1
 113 0 l 1
 -88 0 l 1
EndSplineSet
EndChar

StartChar: B
Encoding: 66 66 13
Width: 1373
VWidth: 0
Flags: HW
PickledData: "(dp1
S'org.pippin.gimp.org.kernagic'
p2
(dp3
S'lstem'
p4
I0
sS'rstem'
p5
I0
ssS'com.typemytype.robofont.layerData'
p6
(dp7
sS'org.robofab.postScriptHintData'
p8
(dp9
s."
AnchorPoint: "top" 659 1456 basechar 0
LayerCount: 2
Fore
SplineSet
394 849 m 1
 670 849 l 2
 857 849 1014 887 1014 1086 c 0
 1014 1249 931 1330 638 1330 c 0
 571 1330 442 1325 394 1320 c 1
 394 849 l 1
590 132 m 0
 1014 132 1053 260 1053 426 c 0
 1053 636 932 717 657 717 c 2
 394 717 l 1
 394 140 l 1
 465 135 531 132 590 132 c 0
558 -9 m 0
 454 -9 336 -3 204 8 c 1
 204 1446 l 1
 348 1457 505 1464 619 1464 c 0
 1149 1464 1190 1261 1190 1098 c 0
 1190 964 1127 849 941 789 c 1
 1156 737 1242 611 1242 431 c 0
 1242 119 1048 -9 558 -9 c 0
EndSplineSet
EndChar

StartChar: C
Encoding: 67 67 14
Width: 1431
VWidth: 0
Flags: HW
PickledData: "(dp1
S'org.pippin.gimp.org.kernagic'
p2
(dp3
S'lstem'
p4
I0
sS'rstem'
p5
I0
ssS'com.typemytype.robofont.layerData'
p6
(dp7
sS'org.robofab.postScriptHintData'
p8
(dp9
s."
AnchorPoint: "bot" 792 1 basechar 0
AnchorPoint: "top" 777 1456 basechar 0
LayerCount: 2
Fore
SplineSet
800 -20 m 0
 412 -20 152 254 152 729 c 0
 152 1204 412 1478 801 1478 c 0
 1042 1478 1285 1352 1339 1100 c 1
 1202 1050 l 1
 1186 1050 l 1
 1149 1212 996 1327 814 1327 c 0
 530 1327 346 1127 346 729 c 0
 346 331 532 130 813 130 c 0
 996 130 1153 248 1190 408 c 1
 1206 408 l 1
 1343 358 l 1
 1289 106 1043 -20 800 -20 c 0
EndSplineSet
EndChar

StartChar: D
Encoding: 68 68 20
Width: 1501
VWidth: 0
Flags: HW
PickledData: "(dp1
S'org.pippin.gimp.org.kernagic'
p2
(dp3
S'lstem'
p4
I0
sS'rstem'
p5
I0
ssS'com.typemytype.robofont.layerData'
p6
(dp7
sS'com.fontlab.hintData'
p8
(dp9
S'vhints'
p10
((dp11
S'position'
p12
I1280
sS'width'
p13
I122
stp14
sS'hhints'
p15
((dp16
g12
I0
sg13
I94
s(dp17
g12
I1355
sg13
I94
stp18
ssS'org.robofab.postScriptHintData'
p19
(dp20
s."
HStem: 0 94 1355 94
VStem: 1280 122
AnchorPoint: "mid" 302 766 basechar 0
AnchorPoint: "bot" 777 -1 basechar 0
AnchorPoint: "top" 743 1456 basechar 0
LayerCount: 2
Fore
SplineSet
509 -11 m 0
 416 -11 314 -4 204 10 c 1
 204 1435 l 1
 345 1453 470 1462 579 1462 c 0
 1201 1462 1348 1178 1348 745 c 0
 1348 295 1136 -11 509 -11 c 0
558 124 m 0
 1038 124 1159 379 1159 740 c 0
 1159 1103 1055 1328 595 1328 c 0
 534 1328 468 1324 394 1316 c 1
 394 132 l 1
 452 127 508 124 558 124 c 0
EndSplineSet
EndChar

StartChar: Delta
Encoding: 916 916 23
Width: 1335
VWidth: 0
Flags: HW
PickledData: "(dp1
S'org.pippin.gimp.org.kernagic'
p2
(dp3
S'lstem'
p4
I0
sS'rstem'
p5
I0
ssS'com.typemytype.robofont.layerData'
p6
(dp7
S'b'
(dp8
S'name'
p9
S'Delta'
p10
sS'lib'
p11
(dp12
sS'unicodes'
p13
(tsS'width'
p14
I1334
sS'contours'
p15
(tsS'components'
p16
(tsS'anchors'
p17
(tsssS'org.robofab.postScriptHintData'
p18
(dp19
s."
LayerCount: 2
Fore
SplineSet
263 149 m 1
 1064 149 l 1
 661 1307 l 1
 263 149 l 1
46 0 m 1
 575 1487 l 1
 745 1487 l 1
 1283 0 l 1
 46 0 l 1
EndSplineSet
EndChar

StartChar: E
Encoding: 69 69 24
Width: 1302
VWidth: 0
Flags: HW
PickledData: "(dp1
S'org.pippin.gimp.org.kernagic'
p2
(dp3
S'lstem'
p4
I0
sS'rstem'
p5
I0
ssS'com.typemytype.robofont.layerData'
p6
(dp7
sS'org.robofab.postScriptHintData'
p8
(dp9
s."
AnchorPoint: "bot" 704 0 basechar 0
AnchorPoint: "ogonek" 887 0 basechar 0
AnchorPoint: "top" 735 1456 basechar 0
LayerCount: 2
Fore
SplineSet
204 0 m 1
 204 1456 l 1
 1159 1456 l 1
 1152 1313 l 1
 394 1313 l 1
 394 825 l 1
 1093 825 l 1
 1093 681 l 1
 394 681 l 1
 394 145 l 1
 1174 145 l 1
 1162 0 l 1
 204 0 l 1
EndSplineSet
EndChar

StartChar: Eng
Encoding: 330 330 33
Width: 1518
VWidth: 0
Flags: HW
PickledData: "(dp1
S'org.robofab.postScriptHintData'
p2
(dp3
s."
LayerCount: 2
Fore
SplineSet
1321 1456 m 1
 1321 -7 l 2
 1321 -332 1154 -433 737 -434 c 1
 734 -296 l 1
 1095 -296 1150 -219 1150 -15 c 0
 1150 -11 1150 -7 1150 -3 c 1
 361 1200 l 1
 378 750 l 1
 378 0 l 1
 204 0 l 1
 204 1456 l 1
 393 1456 l 1
 1161 254 l 1
 1150 660 l 1
 1150 1456 l 1
 1321 1456 l 1
EndSplineSet
EndChar

StartChar: Euro
Encoding: 8364 8364 36
Width: 1389
VWidth: 0
Flags: HW
PickledData: "(dp1
S'org.pippin.gimp.org.kernagic'
p2
(dp3
S'lstem'
p4
I0
sS'rstem'
p5
I0
ssS'com.typemytype.robofont.layerData'
p6
(dp7
S'b'
(dp8
S'name'
p9
S'Euro'
p10
sS'lib'
p11
(dp12
sS'unicodes'
p13
(tsS'width'
p14
I1391
sS'contours'
p15
(tsS'components'
p16
(tsS'anchors'
p17
(tsssS'org.robofab.postScriptHintData'
p18
(dp19
s."
LayerCount: 2
Fore
SplineSet
728 -20 m 0
 971 -20 1217 106 1271 358 c 1
 1134 408 l 1
 1118 408 l 1
 1081 248 924 130 741 130 c 0
 512 130 345 264 292 529 c 1
 812 529 l 1
 820 643 l 1
 277 643 l 1
 275 671 274 699 274 729 c 0
 274 760 275 790 277 818 c 1
 820 818 l 1
 827 930 l 1
 292 930 l 1
 345 1194 511 1327 742 1327 c 0
 924 1327 1077 1212 1114 1050 c 1
 1130 1050 l 1
 1267 1100 l 1
 1213 1352 970 1478 729 1478 c 0
 399 1478 161 1280 97 930 c 1
 -38 930 l 1
 -44 818 l 1
 83 818 l 1
 81 789 80 760 80 729 c 0
 80 700 81 671 83 643 c 1
 -44 643 l 1
 -51 529 l 1
 97 529 l 1
 161 178 398 -20 728 -20 c 0
EndSplineSet
EndChar

StartChar: F
Encoding: 70 70 37
Width: 1197
VWidth: 0
Flags: HW
PickledData: "(dp1
S'org.pippin.gimp.org.kernagic'
p2
(dp3
S'lstem'
p4
I0
sS'rstem'
p5
I705
ssS'com.typemytype.robofont.layerData'
p6
(dp7
sS'org.robofab.postScriptHintData'
p8
(dp9
s."
AnchorPoint: "top" 730 1456 basechar 0
LayerCount: 2
Fore
SplineSet
204 0 m 1
 204 1456 l 1
 1163 1456 l 1
 1153 1310 l 1
 394 1310 l 1
 394 800 l 1
 1044 800 l 1
 1044 661 l 1
 394 661 l 1
 394 0 l 1
 204 0 l 1
EndSplineSet
EndChar

StartChar: G
Encoding: 71 71 38
Width: 1478
VWidth: 0
Flags: HW
PickledData: "(dp1
S'org.pippin.gimp.org.kernagic'
p2
(dp3
S'lstem'
p4
I0
sS'rstem'
p5
I0
ssS'com.typemytype.robofont.layerData'
p6
(dp7
sS'org.robofab.postScriptHintData'
p8
(dp9
s."
AnchorPoint: "bot" 807 1 basechar 0
AnchorPoint: "top" 801 1456 basechar 0
LayerCount: 2
Fore
SplineSet
823 -20 m 0
 373 -20 152 289 152 735 c 0
 152 1188 411 1476 849 1476 c 0
 1070 1476 1245 1395 1335 1285 c 1
 1241 1180 l 1
 1225 1180 l 1
 1159 1251 1035 1326 855 1326 c 0
 523 1326 346 1092 346 736 c 0
 346 364 486 130 857 130 c 0
 988 130 1089 152 1158 172 c 1
 1158 619 l 1
 830 640 l 1
 839 767 l 1
 1332 767 l 1
 1332 72 l 1
 1184 14 1023 -20 823 -20 c 0
EndSplineSet
EndChar

StartChar: H
Encoding: 72 72 44
Width: 1539
VWidth: 0
Flags: HW
PickledData: "(dp1
S'org.pippin.gimp.org.kernagic'
p2
(dp3
S'lstem'
p4
I0
sS'rstem'
p5
I0
ssS'com.typemytype.robofont.layerData'
p6
(dp7
sS'org.robofab.postScriptHintData'
p8
(dp9
s."
AnchorPoint: "top" 783 1456 basechar 0
LayerCount: 2
Fore
SplineSet
207 -1 m 1
 207 1456 l 1
 397 1456 l 1
 397 823 l 1
 1142 823 l 1
 1142 1456 l 1
 1332 1456 l 1
 1332 -1 l 1
 1142 -1 l 1
 1142 675 l 1
 397 675 l 1
 397 -1 l 1
 207 -1 l 1
EndSplineSet
EndChar

StartChar: Hbar
Encoding: 294 294 45
Width: 1486
VWidth: 0
Flags: HW
PickledData: "(dp1
S'org.pippin.gimp.org.kernagic'
p2
(dp3
S'lstem'
p4
I0
sS'rstem'
p5
I0
ssS'com.typemytype.robofont.layerData'
p6
(dp7
sS'org.robofab.postScriptHintData'
p8
(dp9
s."
LayerCount: 2
Fore
SplineSet
65 1152 m 1
 65 1275 l 1
 1413 1275 l 1
 1413 1152 l 1
 65 1152 l 1
EndSplineSet
Refer: 44 72 N 1 0 0 1 0 0 2
EndChar

StartChar: I
Encoding: 73 73 47
Width: 964
VWidth: 0
Flags: HW
PickledData: "(dp1
S'org.pippin.gimp.org.kernagic'
p2
(dp3
S'lstem'
p4
I0
sS'rstem'
p5
I0
ssS'com.typemytype.robofont.layerData'
p6
(dp7
sS'com.fontlab.hintData'
p8
(dp9
S'vhints'
p10
((dp11
S'position'
p12
I111
sS'width'
p13
I529
stp14
sS'hhints'
p15
((dp16
g12
I0
sg13
I86
s(dp17
g12
I1363
sg13
I86
stp18
ssS'org.robofab.postScriptHintData'
p19
(dp20
s."
HStem: 0 86 1363 86
VStem: 111 529
AnchorPoint: "ogonek" 482 0 basechar 0
AnchorPoint: "top" 479 1456 basechar 0
LayerCount: 2
Fore
SplineSet
188 -1 m 1
 188 116 l 1
 383 116 l 1
 383 1340 l 1
 188 1340 l 1
 188 1456 l 1
 766 1456 l 1
 766 1340 l 1
 574 1340 l 1
 574 116 l 1
 766 116 l 1
 766 -1 l 1
 188 -1 l 1
EndSplineSet
EndChar

StartChar: J
Encoding: 74 74 58
Width: 792
VWidth: 0
Flags: HW
PickledData: "(dp1
S'org.pippin.gimp.org.kernagic'
p2
(dp3
S'lstem'
p4
I132
sS'rstem'
p5
I0
ssS'com.typemytype.robofont.layerData'
p6
(dp7
sS'org.robofab.postScriptHintData'
p8
(dp9
s."
AnchorPoint: "top" 470 1456 basechar 0
LayerCount: 2
Fore
SplineSet
193 -410 m 1
 134 -266 l 1
 255 -216 l 2
 362 -171 370 -146 370 31 c 2
 370 1456 l 1
 560 1456 l 1
 560 32 l 2
 560 -240 514 -293 281 -378 c 2
 193 -410 l 1
EndSplineSet
EndChar

StartChar: K
Encoding: 75 75 60
Width: 1316
VWidth: 0
Flags: HW
PickledData: "(dp1
S'org.pippin.gimp.org.kernagic'
p2
(dp3
S'lstem'
p4
I0
sS'rstem'
p5
I851
ssS'com.typemytype.robofont.layerData'
p6
(dp7
sS'org.robofab.postScriptHintData'
p8
(dp9
s."
AnchorPoint: "bot" 689 0 basechar 0
AnchorPoint: "top" 686 1456 basechar 0
LayerCount: 2
Fore
SplineSet
204 0 m 1
 204 1456 l 1
 394 1456 l 1
 394 760 l 1
 1080 1456 l 1
 1288 1456 l 1
 1288 1437 l 1
 691 836 l 1
 1326 19 l 1
 1326 0 l 1
 1112 0 l 1
 550 733 l 1
 394 580 l 1
 394 0 l 1
 204 0 l 1
EndSplineSet
EndChar

StartChar: L
Encoding: 76 76 62
Width: 1102
VWidth: 0
Flags: HW
PickledData: "(dp1
S'org.pippin.gimp.org.kernagic'
p2
(dp3
S'lstem'
p4
I0
sS'rstem'
p5
I597
ssS'com.typemytype.robofont.layerData'
p6
(dp7
sS'org.robofab.postScriptHintData'
p8
(dp9
s."
AnchorPoint: "mid" 328 746 basechar 0
AnchorPoint: "bot" 635 0 basechar 0
AnchorPoint: "top" 447 1456 basechar 0
LayerCount: 2
Fore
SplineSet
204 0 m 1
 204 1456 l 1
 394 1456 l 1
 394 143 l 1
 1098 143 l 1
 1092 0 l 1
 204 0 l 1
EndSplineSet
EndChar

StartChar: M
Encoding: 77 77 68
Width: 1813
VWidth: 0
Flags: HW
PickledData: "(dp1
S'org.pippin.gimp.org.kernagic'
p2
(dp3
S'lstem'
p4
I0
sS'rstem'
p5
I0
ssS'com.typemytype.robofont.layerData'
p6
(dp7
sS'com.typemytype.robofont.guides'
p8
((dp9
S'y'
I378
sS'x'
I548
sS'magnetic'
p10
I5
sS'angle'
p11
I0
sS'isGlobal'
p12
I00
stp13
sS'com.fontlab.hintData'
p14
(dp15
S'vhints'
p16
((dp17
S'position'
p18
I185
sS'width'
p19
I166
s(dp20
g18
I214
sg19
I151
s(dp21
g18
I332
sg19
I33
s(dp22
g18
I1463
sg19
I149
s(dp23
g18
I1463
sg19
I39
s(dp24
g18
I1477
sg19
I164
stp25
ssS'org.robofab.postScriptHintData'
p26
(dp27
s."
VStem: 185 166 214 151 332 33 1463 149 1463 39 1477 164
AnchorPoint: "top" 920 1456 basechar 0
LayerCount: 2
Fore
SplineSet
184 -1 m 1
 184 489 l 1
 208 1456 l 1
 434 1456 l 1
 908 389 l 1
 1385 1456 l 1
 1605 1456 l 1
 1629 490 l 1
 1629 -1 l 1
 1451 -1 l 1
 1451 486 l 1
 1443 1200 l 1
 984 171 l 1
 829 171 l 1
 372 1210 l 1
 363 483 l 1
 363 -1 l 1
 184 -1 l 1
EndSplineSet
EndChar

StartChar: N
Encoding: 78 78 69
Width: 1525
VWidth: 0
Flags: HW
PickledData: "(dp1
S'org.pippin.gimp.org.kernagic'
p2
(dp3
S'lstem'
p4
I0
sS'rstem'
p5
I0
ssS'com.typemytype.robofont.layerData'
p6
(dp7
sS'org.robofab.postScriptHintData'
p8
(dp9
s."
AnchorPoint: "bot" 774 0 basechar 0
AnchorPoint: "top" 787 1456 basechar 0
LayerCount: 2
Fore
SplineSet
204 0 m 1
 204 1456 l 1
 393 1456 l 1
 1161 243 l 1
 1150 660 l 1
 1150 1456 l 1
 1321 1456 l 1
 1321 0 l 1
 1124 0 l 1
 361 1200 l 1
 378 750 l 1
 378 0 l 1
 204 0 l 1
EndSplineSet
EndChar

StartChar: O
Encoding: 79 79 75
Width: 1621
VWidth: 0
Flags: HW
PickledData: "(dp1
S'org.pippin.gimp.org.kernagic'
p2
(dp3
S'lstem'
p4
I0
sS'rstem'
p5
I0
ssS'com.typemytype.robofont.layerData'
p6
(dp7
sS'com.typemytype.robofont.guides'
p8
(tsS'com.fontlab.hintData'
p9
(dp10
S'vhints'
p11
((dp12
S'position'
p13
I150
sS'width'
p14
I122
s(dp15
g13
I1390
sg14
I122
stp16
sS'hhints'
p17
((dp18
g13
I-19
sg14
I96
s(dp19
g13
I1372
sg14
I96
stp20
ssS'org.robofab.postScriptHintData'
p21
(dp22
s."
HStem: -19 96 1372 96
VStem: 150 122 1390 122
AnchorPoint: "ogonek" 893 1 basechar 0
AnchorPoint: "top" 813 1456 basechar 0
LayerCount: 2
Fore
SplineSet
813 -20 m 0
 365 -20 156 268 156 721 c 0
 156 1184 374 1476 814 1476 c 0
 1246 1476 1465 1182 1465 719 c 0
 1465 273 1257 -20 813 -20 c 0
812 131 m 0
 1152 131 1272 368 1272 720 c 0
 1272 1084 1145 1325 813 1325 c 0
 483 1325 350 1087 350 720 c 0
 350 368 472 131 812 131 c 0
EndSplineSet
Substitution2: "Single Substitution lookup 14 subtable" ordmasculine
EndChar

StartChar: OE
Encoding: 338 338 76
Width: 2370
VWidth: 0
Flags: HW
PickledData: "(dp1
S'org.pippin.gimp.org.kernagic'
p2
(dp3
S'lstem'
p4
I0
sS'rstem'
p5
I0
ssS'com.typemytype.robofont.layerData'
p6
(dp7
S'b'
(dp8
S'name'
p9
S'OE'
p10
sS'lib'
p11
(dp12
sS'unicodes'
p13
(tsS'width'
p14
I2367
sS'contours'
p15
(tsS'components'
p16
(tsS'anchors'
p17
(tsssS'org.robofab.postScriptHintData'
p18
(dp19
s."
LayerCount: 2
Fore
SplineSet
793 130 m 0
 1137 130 1257 369 1257 721 c 0
 1257 1085 1129 1327 794 1327 c 0
 461 1327 327 1088 327 721 c 0
 327 369 450 130 793 130 c 0
794 -20 m 0
 348 -20 140 268 140 722 c 0
 140 1186 358 1477 795 1477 c 0
 999 1477 1162 1401 1258 1264 c 1
 1258 1456 l 1
 2208 1456 l 1
 2200 1314 l 1
 1441 1314 l 1
 1441 824 l 1
 2141 824 l 1
 2141 681 l 1
 1441 681 l 1
 1441 144 l 1
 2222 144 l 1
 2212 0 l 1
 1258 0 l 1
 1258 185 l 1
 1163 54 1003 -20 794 -20 c 0
EndSplineSet
EndChar

StartChar: Oslash
Encoding: 216 216 84
Width: 1622
VWidth: 0
Flags: HW
PickledData: "(dp1
S'org.pippin.gimp.org.kernagic'
p2
(dp3
S'lstem'
p4
I0
sS'rstem'
p5
I0
ssS'com.typemytype.robofont.layerData'
p6
(dp7
sS'org.robofab.postScriptHintData'
p8
(dp9
s."
AnchorPoint: "top" 815 1456 basechar 0
LayerCount: 2
Fore
SplineSet
811 131 m 0
 1152 131 1272 368 1272 720 c 0
 1272 955 1219 1140 1090 1241 c 1
 672 147 l 1
 713 136 760 131 811 131 c 0
574 187 m 1
 993 1296 l 1
 942 1315 882 1325 814 1325 c 0
 483 1325 349 1087 349 720 c 0
 349 469 412 276 574 187 c 1
520 -250 m 1
 422 -214 l 1
 516 34 l 1
 272 137 156 383 156 721 c 0
 156 1184 374 1476 815 1476 c 0
 901 1476 979 1465 1048 1441 c 1
 1142 1690 l 1
 1246 1650 l 1
 1150 1398 l 1
 1360 1281 1465 1040 1465 719 c 0
 1465 273 1257 -20 814 -20 c 0
 742 -20 676 -13 616 2 c 1
 520 -250 l 1
EndSplineSet
EndChar

StartChar: P
Encoding: 80 80 87
Width: 1303
VWidth: 0
Flags: HW
PickledData: "(dp1
S'org.pippin.gimp.org.kernagic'
p2
(dp3
S'lstem'
p4
I0
sS'rstem'
p5
I807
ssS'com.typemytype.robofont.layerData'
p6
(dp7
sS'org.robofab.postScriptHintData'
p8
(dp9
s."
AnchorPoint: "top" 689 1456 basechar 0
LayerCount: 2
Fore
SplineSet
608 765 m 0
 967 765 1033 875 1033 1061 c 0
 1033 1232 962 1329 634 1329 c 0
 566 1329 486 1325 394 1316 c 1
 394 775 l 1
 475 768 546 765 608 765 c 0
204 0 m 1
 204 1435 l 1
 366 1453 504 1463 621 1463 c 0
 1063 1463 1209 1330 1209 1065 c 0
 1209 812 1097 631 607 631 c 0
 543 631 472 633 394 640 c 1
 394 0 l 1
 204 0 l 1
EndSplineSet
EndChar

StartChar: Q
Encoding: 81 81 88
Width: 1599
VWidth: 0
Flags: HW
PickledData: "(dp1
S'org.pippin.gimp.org.kernagic'
p2
(dp3
S'lstem'
p4
I0
sS'rstem'
p5
I0
ssS'com.typemytype.robofont.layerData'
p6
(dp7
sS'org.robofab.postScriptHintData'
p8
(dp9
s."
LayerCount: 2
Fore
SplineSet
812 131 m 0
 472 131 350 368 350 720 c 0
 350 1087 483 1325 813 1325 c 0
 1145 1325 1272 1084 1272 720 c 0
 1272 368 1152 131 812 131 c 0
1169 -439 m 1
 1291 -351 l 1
 1185 -248 1078 -104 1020 5 c 1
 1322 85 1465 349 1465 719 c 0
 1465 1182 1246 1476 814 1476 c 0
 374 1476 156 1184 156 721 c 0
 156 268 365 -20 813 -20 c 0
 828 -20 843 -20 858 -19 c 1
 932 -152 1067 -344 1169 -439 c 1
EndSplineSet
EndChar

StartChar: R
Encoding: 82 82 89
Width: 1355
VWidth: 0
Flags: HW
PickledData: "(dp1
S'org.pippin.gimp.org.kernagic'
p2
(dp3
S'lstem'
p4
I0
sS'rstem'
p5
I839
ssS'com.typemytype.robofont.layerData'
p6
(dp7
sS'com.fontlab.hintData'
p8
(dp9
S'vhints'
p10
((dp11
S'position'
p12
I1122
sS'width'
p13
I117
stp14
sS'hhints'
p15
((dp16
g12
I722
sg13
I96
s(dp17
g12
I1355
sg13
I94
stp18
ssS'org.robofab.postScriptHintData'
p19
(dp20
s."
HStem: 722 96 1355 94
VStem: 1122 117
AnchorPoint: "bot" 719 0 basechar 0
AnchorPoint: "top" 712 1456 basechar 0
LayerCount: 2
Fore
SplineSet
398 797 m 1
 659 797 l 2
 986 797 1065 875 1065 1069 c 0
 1065 1243 1005 1329 675 1329 c 0
 650 1329 622 1329 593 1329 c 0
 534 1329 467 1328 398 1323 c 1
 398 797 l 1
208 0 m 1
 208 1446 l 1
 335 1457 547 1464 673 1464 c 0
 1097 1464 1240 1351 1240 1073 c 0
 1240 854 1125 736 930 688 c 1
 1279 20 l 1
 1279 0 l 1
 1076 0 l 1
 740 667 l 1
 398 666 l 1
 398 0 l 1
 208 0 l 1
EndSplineSet
EndChar

StartChar: S
Encoding: 83 83 93
Width: 1221
VWidth: 0
Flags: HW
PickledData: "(dp1
S'org.pippin.gimp.org.kernagic'
p2
(dp3
S'lstem'
p4
I185
sS'rstem'
p5
I826
ssS'com.typemytype.robofont.guides'
p6
((dp7
S'y'
I973
sS'x'
I1035
sS'magnetic'
p8
I5
sS'angle'
p9
F90
sS'isGlobal'
p10
I00
s(dp11
S'y'
I382
sS'x'
I75
sg8
I5
sg9
F90
sg10
I00
stp12
sS'com.typemytype.robofont.layerData'
p13
(dp14
sS'org.robofab.postScriptHintData'
p15
(dp16
s."
AnchorPoint: "bot" 623 0 basechar 0
AnchorPoint: "top" 620 1473 basechar 0
LayerCount: 2
Fore
SplineSet
599 -20 m 0
 363 -20 176 79 95 177 c 1
 200 290 l 1
 213 290 l 1
 302 198 423 131 598 131 c 0
 782 131 920 199 920 384 c 0
 920 523 855 563 641 652 c 1
 436 736 l 2
 235 818 119 881 119 1084 c 0
 119 1394 363 1476 621 1476 c 0
 812 1476 978 1406 1078 1291 c 1
 977 1189 l 1
 962 1189 l 1
 885 1277 759 1327 613 1327 c 0
 450 1327 310 1276 310 1107 c 0
 310 992 358 956 519 890 c 2
 725 806 l 1
 961 712 1101 641 1101 383 c 0
 1101 79 843 -20 599 -20 c 0
EndSplineSet
EndChar

StartChar: T
Encoding: 84 84 99
Width: 1148
VWidth: 0
Flags: HW
PickledData: "(dp1
S'org.pippin.gimp.org.kernagic'
p2
(dp3
S'lstem'
p4
I285
sS'rstem'
p5
I844
ssS'com.typemytype.robofont.layerData'
p6
(dp7
sS'org.robofab.postScriptHintData'
p8
(dp9
s."
AnchorPoint: "mid" 577 762 basechar 0
AnchorPoint: "bot" 578 0 basechar 0
AnchorPoint: "top" 577 1456 basechar 0
LayerCount: 2
Fore
SplineSet
477 -1 m 1
 477 1313 l 1
 8 1313 l 1
 8 1456 l 1
 1140 1456 l 1
 1140 1313 l 1
 668 1313 l 1
 668 -1 l 1
 477 -1 l 1
EndSplineSet
EndChar

StartChar: Thorn
Encoding: 222 222 103
Width: 1214
VWidth: 0
Flags: HW
PickledData: "(dp1
S'org.pippin.gimp.org.kernagic'
p2
(dp3
S'lstem'
p4
I0
sS'rstem'
p5
I0
ssS'com.typemytype.robofont.layerData'
p6
(dp7
S'b'
(dp8
S'name'
p9
S'Thorn'
p10
sS'lib'
p11
(dp12
sS'unicodes'
p13
(tsS'width'
p14
I1192
sS'contours'
p15
(tsS'components'
p16
(tsS'anchors'
p17
(tsssS'org.robofab.postScriptHintData'
p18
(dp19
s."
LayerCount: 2
Fore
SplineSet
382 586 m 1
 564 586 l 2
 788 586 862 645 862 830 c 0
 862 997 761 1043 571 1043 c 2
 382 1043 l 1
 382 586 l 1
191 0 m 1
 191 1492 l 1
 382 1492 l 1
 382 1179 l 1
 570 1179 l 2
 863 1179 1051 1095 1051 834 c 0
 1051 579 922 448 571 448 c 2
 382 448 l 1
 382 0 l 1
 191 0 l 1
EndSplineSet
EndChar

StartChar: U
Encoding: 85 85 104
Width: 1455
VWidth: 0
Flags: HW
PickledData: "(dp1
S'org.pippin.gimp.org.kernagic'
p2
(dp3
S'lstem'
p4
I0
sS'rstem'
p5
I0
ssS'com.typemytype.robofont.layerData'
p6
(dp7
sS'org.robofab.postScriptHintData'
p8
(dp9
s."
AnchorPoint: "bot" 723 1 basechar 0
AnchorPoint: "ogonek" 861 18 basechar 0
AnchorPoint: "top" 736 1456 basechar 0
LayerCount: 2
Fore
SplineSet
725 -20 m 0
 336 -20 170 207 170 542 c 2
 170 1457 l 1
 361 1457 l 1
 361 547 l 2
 361 274 461 132 725 132 c 0
 980 132 1089 274 1089 546 c 2
 1089 1457 l 1
 1280 1457 l 1
 1280 539 l 2
 1280 212 1110 -20 725 -20 c 0
EndSplineSet
EndChar

StartChar: V
Encoding: 86 86 115
Width: 1438
VWidth: 0
Flags: HW
PickledData: "(dp1
S'org.pippin.gimp.org.kernagic'
p2
(dp3
S'lstem'
p4
I0
sS'rstem'
p5
I0
ssS'com.typemytype.robofont.layerData'
p6
(dp7
sS'org.robofab.postScriptHintData'
p8
(dp9
s."
LayerCount: 2
Fore
SplineSet
625 -1 m 1
 77 1456 l 1
 270 1456 l 1
 412 1061 578 621 713 220 c 1
 851 620 1017 1061 1159 1456 c 1
 1361 1456 l 1
 798 -1 l 1
 625 -1 l 1
EndSplineSet
EndChar

StartChar: W
Encoding: 87 87 116
Width: 1983
VWidth: 0
Flags: HW
PickledData: "(dp1
S'org.pippin.gimp.org.kernagic'
p2
(dp3
S'lstem'
p4
I0
sS'rstem'
p5
I0
ssS'com.typemytype.robofont.layerData'
p6
(dp7
sS'org.robofab.postScriptHintData'
p8
(dp9
s."
AnchorPoint: "bot" 998 0 basechar 0
AnchorPoint: "top" 1003 1456 basechar 0
LayerCount: 2
Fore
SplineSet
467 0 m 1
 77 1456 l 1
 247 1456 l 1
 566 253 l 1
 910 1426 l 1
 1089 1426 l 1
 1431 240 l 1
 1723 1456 l 1
 1907 1456 l 1
 1525 0 l 1
 1342 0 l 1
 1001 1197 l 1
 647 0 l 1
 467 0 l 1
EndSplineSet
EndChar

StartChar: X
Encoding: 88 88 121
Width: 1292
VWidth: 0
Flags: HW
PickledData: "(dp1
S'org.pippin.gimp.org.kernagic'
p2
(dp3
S'lstem'
p4
I0
sS'rstem'
p5
I0
ssS'com.typemytype.robofont.layerData'
p6
(dp7
sS'org.robofab.postScriptHintData'
p8
(dp9
s."
LayerCount: 2
Fore
SplineSet
49 -1 m 1
 531 738 l 1
 55 1456 l 1
 265 1456 l 1
 649 878 l 1
 1022 1456 l 1
 1226 1456 l 1
 748 730 l 1
 1233 -1 l 1
 1021 -1 l 1
 633 584 l 1
 244 -1 l 1
 49 -1 l 1
EndSplineSet
EndChar

StartChar: Y
Encoding: 89 89 122
Width: 1358
VWidth: 0
Flags: HW
PickledData: "(dp1
S'org.pippin.gimp.org.kernagic'
p2
(dp3
S'lstem'
p4
I0
sS'rstem'
p5
I0
ssS'com.typemytype.robofont.layerData'
p6
(dp7
sS'org.robofab.postScriptHintData'
p8
(dp9
s."
AnchorPoint: "top" 680 1456 basechar 0
LayerCount: 2
Fore
SplineSet
587 0 m 1
 587 521 l 1
 76 1456 l 1
 256 1456 l 1
 681 684 l 1
 1092 1456 l 1
 1282 1456 l 1
 777 518 l 1
 777 0 l 1
 587 0 l 1
EndSplineSet
EndChar

StartChar: Z
Encoding: 90 90 127
Width: 1190
VWidth: 0
Flags: HW
PickledData: "(dp1
S'org.pippin.gimp.org.kernagic'
p2
(dp3
S'lstem'
p4
I0
sS'rstem'
p5
I0
ssS'com.typemytype.robofont.layerData'
p6
(dp7
sS'org.robofab.postScriptHintData'
p8
(dp9
s."
AnchorPoint: "bot" 649 0 basechar 0
AnchorPoint: "top" 666 1456 basechar 0
LayerCount: 2
Fore
SplineSet
94 0 m 1
 94 131 l 1
 908 1314 l 1
 127 1314 l 1
 125 1456 l 1
 1114 1456 l 1
 1120 1327 l 1
 311 143 l 1
 1128 143 l 1
 1122 0 l 1
 94 0 l 1
EndSplineSet
EndChar

StartChar: a
Encoding: 97 97 131
Width: 1125
VWidth: 0
Flags: HW
PickledData: "(dp1
S'org.pippin.gimp.org.kernagic'
p2
(dp3
S'lstem'
p4
I0
sS'rstem'
p5
I0
ssS'com.typemytype.robofont.layerData'
p6
(dp7
sS'com.typemytype.robofont.guides'
p8
(tsS'com.fontlab.hintData'
p9
(dp10
S'vhints'
p11
((dp12
S'position'
p13
I126
sS'width'
p14
I120
s(dp15
g13
I842
sg14
I32
s(dp16
g13
I875
sg14
I86
stp17
sS'hhints'
p18
((dp19
g13
I-15
sg14
I92
s(dp20
g13
I535
sg14
I82
s(dp21
g13
I983
sg14
I92
stp22
ssS'org.robofab.postScriptHintData'
p23
(dp24
s."
HStem: -15 92 535 82 983 92
VStem: 126 120 842 32 875 86
AnchorPoint: "bot" 500 1 basechar 0
AnchorPoint: "ogonek" 899 1 basechar 0
AnchorPoint: "top" 561 1083 basechar 0
LayerCount: 2
Fore
SplineSet
488 107 m 0
 617 107 721 164 790 253 c 1
 790 482 l 1
 579 483 l 1
 353 483 283 418 283 291 c 0
 283 155 374 107 488 107 c 0
461 -20 m 0
 255 -20 113 83 113 293 c 0
 113 486 245 598 547 598 c 1
 790 595 l 1
 790 721 l 2
 790 896 710 970 551 970 c 0
 448 970 307 939 205 869 c 1
 152 1004 l 1
 260 1072 412 1106 555 1106 c 0
 798 1106 968 999 968 706 c 2
 968 0 l 1
 819 0 l 1
 806 135 l 1
 718 29 608 -20 461 -20 c 0
EndSplineSet
Substitution2: "Single Substitution lookup 13 subtable" ordfeminine
EndChar

StartChar: acute
Encoding: 180 180 135
Width: 730
VWidth: 0
Flags: HW
PickledData: "(dp1
S'org.robofab.postScriptHintData'
p2
(dp3
sS'com.typemytype.robofont.layerData'
p4
(dp5
s."
AnchorPoint: "top" 350 1082 mark 0
LayerCount: 2
Fore
SplineSet
288 1211 m 1
 485 1587 l 1
 703 1587 l 1
 405 1211 l 1
 288 1211 l 1
EndSplineSet
EndChar

StartChar: ae
Encoding: 230 230 137
Width: 1663
VWidth: 0
Flags: HW
PickledData: "(dp1
S'org.pippin.gimp.org.kernagic'
p2
(dp3
S'lstem'
p4
I0
sS'rstem'
p5
I0
ssS'com.typemytype.robofont.layerData'
p6
(dp7
sS'com.fontlab.hintData'
p8
(dp9
S'vhints'
p10
((dp11
S'position'
p12
I126
sS'width'
p13
I119
s(dp14
g12
I817
sg13
I117
s(dp15
g12
I817
sg13
I82
s(dp16
g12
I1556
sg13
I98
stp17
sS'hhints'
p18
((dp19
g12
I-14
sg13
I98
s(dp20
g12
I518
sg13
I82
s(dp21
g12
I983
sg13
I92
stp22
ssS'org.robofab.postScriptHintData'
p23
(dp24
s."
HStem: -14 98 518 82 983 92
VStem: 126 119 817 117 817 82 1556 98
AnchorPoint: "top" 911 1082 basechar 0
LayerCount: 2
Fore
SplineSet
910 606 m 1
 983 601 1046 598 1100 598 c 0
 1393 598 1432 672 1432 759 c 0
 1432 874 1376 970 1219 970 c 0
 1034 970 925 849 910 606 c 1
440 107 m 0
 610 107 734 195 744 353 c 0
 741 360 741 492 741 497 c 1
 667 505 549 510 509 510 c 0
 284 510 234 419 234 295 c 0
 234 152 347 107 440 107 c 0
1230 -20 m 0
 1047 -20 905 58 830 204 c 1
 741 37 560 -20 388 -20 c 1
 197 -11 65 90 65 294 c 0
 65 489 176 625 487 625 c 0
 533 625 663 622 742 613 c 1
 742 718 l 2
 742 900 670 968 511 968 c 0
 409 968 277 941 154 861 c 1
 86 974 l 1
 213 1057 337 1102 505 1102 c 0
 683 1102 808 1047 851 895 c 1
 929 1043 1062 1102 1215 1102 c 0
 1460 1102 1590 957 1590 777 c 0
 1590 529 1405 474 1142 474 c 0
 1069 474 991 478 908 483 c 1
 925 208 1062 113 1252 113 c 0
 1377 113 1458 153 1548 204 c 1
 1600 86 l 1
 1509 25 1382 -20 1230 -20 c 0
EndSplineSet
EndChar

StartChar: ampersand
Encoding: 38 38 142
Width: 1423
VWidth: 0
Flags: HW
PickledData: "(dp1
S'org.pippin.gimp.org.kernagic'
p2
(dp3
S'lstem'
p4
I0
sS'rstem'
p5
I0
ssS'com.typemytype.robofont.layerData'
p6
(dp7
sS'com.fontlab.hintData'
p8
(dp9
S'vhints'
p10
((dp11
S'position'
p12
I135
sS'width'
p13
I121
s(dp14
g12
I312
sg13
I105
s(dp15
g12
I917
sg13
I110
stp16
sS'hhints'
p17
((dp18
g12
I-19
sg13
I96
s(dp19
g12
I1372
sg13
I96
stp20
ssS'org.robofab.postScriptHintData'
p21
(dp22
s."
HStem: -19 96 1372 96
VStem: 135 121 312 105 917 110
LayerCount: 2
Fore
SplineSet
526 857 m 1
 669 932 804 1014 804 1166 c 0
 804 1285 735 1355 604 1355 c 0
 475 1355 377 1278 377 1163 c 0
 377 1068 412 990 526 857 c 1
581 119 m 0
 704 119 807 158 915 268 c 1
 485 697 l 1
 346 622 264 543 264 401 c 0
 264 225 378 119 581 119 c 0
1205 -22 m 1
 1013 170 l 1
 897 59 750 -20 557 -20 c 0
 274 -20 98 148 98 392 c 0
 98 596 213 696 401 793 c 1
 274 925 226 1035 226 1160 c 0
 226 1354 385 1482 604 1482 c 0
 806 1482 959 1374 959 1170 c 0
 959 960 784 857 610 764 c 1
 1003 372 l 1
 1074 466 1147 590 1232 752 c 1
 1341 681 l 1
 1284 567 1211 409 1104 272 c 1
 1300 78 l 1
 1205 -22 l 1
EndSplineSet
EndChar

StartChar: apostrophemod
Encoding: 700 700 144
Width: 645
VWidth: 0
Flags: HW
PickledData: "(dp1
S'org.robofab.postScriptHintData'
p2
(dp3
sS'com.typemytype.robofont.layerData'
p4
(dp5
s."
LayerCount: 2
Fore
SplineSet
117 1156 m 1
 117 1156 178 1549 183 1592 c 1
 367 1592 l 1
 352 1506 256 1156 256 1156 c 1
 117 1156 l 1
EndSplineSet
EndChar

StartChar: approxequal
Encoding: 8776 8776 145
Width: 1157
VWidth: 0
Flags: HW
PickledData: "(dp1
S'org.pippin.gimp.org.kernagic'
p2
(dp3
S'lstem'
p4
I0
sS'rstem'
p5
I0
ssS'com.typemytype.robofont.layerData'
p6
(dp7
S'b'
(dp8
S'name'
p9
S'approxequal'
p10
sS'lib'
p11
(dp12
sS'unicodes'
p13
(tsS'width'
p14
I1136
sS'contours'
p15
(tsS'components'
p16
(tsS'anchors'
p17
(tsssS'org.robofab.postScriptHintData'
p18
(dp19
s."
LayerCount: 2
Fore
SplineSet
820 783 m 0
 747 783 673 813 584 855 c 0
 486 899 414 934 346 934 c 0
 258 934 179 863 137 771 c 1
 85 862 l 1
 129 980 216 1068 347 1068 c 0
 428 1068 487 1043 589 997 c 0
 682 956 761 917 820 917 c 0
 900 917 978 985 1015 1075 c 1
 1070 991 l 1
 1024 863 949 783 820 783 c 0
820 443 m 0
 747 443 673 473 584 515 c 0
 486 559 414 594 346 594 c 0
 258 594 179 523 137 431 c 1
 85 522 l 1
 129 640 216 729 347 729 c 0
 428 729 487 704 589 657 c 0
 682 616 761 577 820 577 c 0
 900 577 978 645 1015 736 c 1
 1070 652 l 1
 1024 522 949 443 820 443 c 0
EndSplineSet
EndChar

StartChar: asciicircum
Encoding: 94 94 148
Width: 1294
VWidth: 0
Flags: HW
PickledData: "(dp1
S'org.pippin.gimp.org.kernagic'
p2
(dp3
S'lstem'
p4
I0
sS'rstem'
p5
I0
ssS'com.typemytype.robofont.layerData'
p6
(dp7
sS'org.robofab.postScriptHintData'
p8
(dp9
s."
LayerCount: 2
Fore
SplineSet
95 300 m 1
 604 1456 l 1
 687 1456 l 1
 1199 300 l 1
 1024 300 l 1
 647 1179 l 1
 268 300 l 1
 95 300 l 1
EndSplineSet
EndChar

StartChar: asciitilde
Encoding: 126 126 149
Width: 1193
VWidth: 0
Flags: HW
PickledData: "(dp1
S'org.pippin.gimp.org.kernagic'
p2
(dp3
S'lstem'
p4
I0
sS'rstem'
p5
I0
ssS'com.typemytype.robofont.layerData'
p6
(dp7
S'b'
(dp8
S'name'
p9
S'asciitilde'
p10
sS'lib'
p11
(dp12
sS'unicodes'
p13
(tsS'width'
p14
I1192
sS'contours'
p15
(tsS'components'
p16
(tsS'anchors'
p17
(tsssS'org.robofab.postScriptHintData'
p18
(dp19
s."
LayerCount: 2
Fore
SplineSet
825 504 m 0
 694 504 480 651 355 651 c 0
 267 651 188 578 142 490 c 1
 98 590 l 1
 144 700 230 788 359 788 c 0
 438 788 497 764 596 720 c 0
 690 679 769 641 829 641 c 0
 910 641 989 711 1030 797 c 1
 1080 704 l 1
 1031 583 950 504 825 504 c 0
EndSplineSet
EndChar

StartChar: asterisk
Encoding: 42 42 150
Width: 957
VWidth: 0
Flags: HW
PickledData: "(dp1
S'org.pippin.gimp.org.kernagic'
p2
(dp3
S'lstem'
p4
I0
sS'rstem'
p5
I0
ssS'com.typemytype.robofont.layerData'
p6
(dp7
sS'org.robofab.postScriptHintData'
p8
(dp9
s."
LayerCount: 2
Fore
SplineSet
298 589 m 1
 161 674 l 1
 394 987 l 1
 51 1064 l 1
 95 1219 l 1
 433 1078 l 1
 399 1463 l 1
 565 1463 l 1
 529 1078 l 1
 869 1219 l 1
 913 1064 l 1
 566 987 l 1
 605 936 717 785 804 674 c 1
 751 640 723 622 669 589 c 1
 477 928 l 1
 298 589 l 1
EndSplineSet
EndChar

StartChar: at
Encoding: 64 64 151
Width: 1948
VWidth: 0
Flags: HW
PickledData: "(dp1
S'org.pippin.gimp.org.kernagic'
p2
(dp3
S'lstem'
p4
I0
sS'rstem'
p5
I0
ssS'com.typemytype.robofont.layerData'
p6
(dp7
sS'org.robofab.postScriptHintData'
p8
(dp9
s."
LayerCount: 2
Fore
SplineSet
902 334 m 0
 1052 334 1102 491 1135 695 c 2
 1177 954 l 1
 1132 964 1069 973 1040 973 c 0
 857 973 730 805 730 579 c 0
 730 430 781 334 902 334 c 0
950 -197 m 0
 476 -197 149 109 149 614 c 0
 149 1115 516 1487 1017 1487 c 0
 1450 1487 1782 1203 1782 753 c 0
 1782 400 1581 221 1407 221 c 0
 1299 221 1189 280 1169 438 c 1
 1120 323 1026 215 885 215 c 0
 692 215 583 371 583 572 c 0
 583 826 737 1083 1024 1083 c 0
 1125 1083 1257 1052 1342 1009 c 1
 1313 799 1277 614 1277 488 c 0
 1277 405 1333 344 1407 344 c 0
 1525 344 1647 488 1647 760 c 0
 1647 1097 1437 1362 1010 1362 c 0
 577 1362 302 1032 302 610 c 0
 302 207 537 -70 953 -70 c 0
 1118 -70 1288 -38 1424 48 c 1
 1467 -59 l 1
 1339 -148 1143 -197 950 -197 c 0
EndSplineSet
EndChar

StartChar: b
Encoding: 98 98 153
Width: 1221
VWidth: 0
Flags: HW
PickledData: "(dp1
S'org.pippin.gimp.org.kernagic'
p2
(dp3
S'lstem'
p4
I0
sS'rstem'
p5
I0
ssS'com.typemytype.robofont.layerData'
p6
(dp7
sS'com.typemytype.robofont.guides'
p8
(tsS'com.fontlab.hintData'
p9
(dp10
S'vhints'
p11
((dp12
S'position'
p13
I193
sS'width'
p14
I125
s(dp15
g13
I193
sg14
I94
s(dp16
g13
I1018
sg14
I122
stp17
sS'hhints'
p18
((dp19
g13
I-19
sg14
I92
s(dp20
g13
I982
sg14
I92
stp21
ssS'org.robofab.postScriptHintData'
p22
(dp23
s."
HStem: -19 92 982 92
VStem: 193 125 193 94 1018 122
AnchorPoint: "top" 665 1082 basechar 0
LayerCount: 2
Fore
SplineSet
631 112 m 0
 832 112 920 279 920 542 c 0
 920 792 855 972 649 972 c 0
 434 972 340 810 341 560 c 1
 341 252 l 1
 406 159 508 112 631 112 c 0
641 -20 m 0
 497 -20 389 39 324 118 c 1
 314 0 l 1
 169 0 l 1
 169 1540 l 1
 347 1560 l 1
 347 1107 l 1
 341 881 l 1
 414 1059 548 1106 674 1106 c 0
 969 1106 1103 872 1103 543 c 0
 1103 205 937 -20 641 -20 c 0
EndSplineSet
EndChar

StartChar: backslash
Encoding: 92 92 154
Width: 939
VWidth: 0
Flags: HW
PickledData: "(dp1
S'org.pippin.gimp.org.kernagic'
p2
(dp3
S'lstem'
p4
I0
sS'rstem'
p5
I0
ssS'com.typemytype.robofont.layerData'
p6
(dp7
S'b'
(dp8
S'name'
p9
S'backslash'
p10
sS'lib'
p11
(dp12
sS'unicodes'
p13
(tsS'width'
p14
I937
sS'contours'
p15
(tsS'components'
p16
(tsS'anchors'
p17
(tsssS'org.robofab.postScriptHintData'
p18
(dp19
s."
LayerCount: 2
Fore
SplineSet
638 -19 m 1
 99 1478 l 1
 237 1478 l 1
 777 -19 l 1
 638 -19 l 1
EndSplineSet
EndChar

StartChar: bar
Encoding: 124 124 155
Width: 666
VWidth: 0
Flags: HW
PickledData: "(dp1
S'org.pippin.gimp.org.kernagic'
p2
(dp3
S'lstem'
p4
I0
sS'rstem'
p5
I0
ssS'com.typemytype.robofont.layerData'
p6
(dp7
S'b'
(dp8
S'name'
p9
S'bar'
p10
sS'lib'
p11
(dp12
sS'unicodes'
p13
(tsS'width'
p14
I681
sS'contours'
p15
(tsS'components'
p16
(tsS'anchors'
p17
(tsssS'org.robofab.postScriptHintData'
p18
(dp19
s."
LayerCount: 2
Fore
SplineSet
254 -285 m 1
 254 1479 l 1
 402 1479 l 1
 402 -285 l 1
 254 -285 l 1
EndSplineSet
EndChar

StartChar: braceleft
Encoding: 123 123 156
Width: 861
VWidth: 0
Flags: HW
PickledData: "(dp1
S'org.pippin.gimp.org.kernagic'
p2
(dp3
S'lstem'
p4
I0
sS'rstem'
p5
I0
ssS'com.typemytype.robofont.layerData'
p6
(dp7
sS'org.robofab.postScriptHintData'
p8
(dp9
s."
LayerCount: 2
Fore
SplineSet
730 -263 m 1
 438 -263 390 -210 390 76 c 2
 390 257 l 2
 390 471 390 540 189 540 c 1
 189 684 l 1
 388 684 390 753 390 967 c 2
 390 1149 l 2
 390 1435 439 1488 730 1488 c 1
 730 1363 l 1
 581 1362 568 1332 568 1131 c 2
 568 887 l 2
 568 715 526 639 371 612 c 1
 526 585 568 508 568 336 c 2
 568 94 l 2
 568 -108 581 -138 730 -138 c 1
 730 -263 l 1
EndSplineSet
EndChar

StartChar: braceright
Encoding: 125 125 157
Width: 861
VWidth: 0
Flags: HW
PickledData: "(dp1
S'org.pippin.gimp.org.kernagic'
p2
(dp3
S'lstem'
p4
I0
sS'rstem'
p5
I0
ssS'com.typemytype.robofont.layerData'
p6
(dp7
sS'org.robofab.postScriptHintData'
p8
(dp9
s."
LayerCount: 2
Fore
SplineSet
126 -263 m 1
 126 -138 l 1
 276 -138 288 -108 288 94 c 2
 288 336 l 2
 288 508 330 585 485 612 c 1
 330 639 288 715 288 887 c 2
 288 1131 l 2
 288 1332 276 1362 126 1363 c 1
 126 1488 l 1
 417 1488 466 1435 466 1149 c 2
 466 967 l 2
 466 753 469 684 667 684 c 1
 667 540 l 1
 466 540 466 471 466 257 c 2
 466 76 l 2
 466 -210 417 -263 126 -263 c 1
EndSplineSet
EndChar

StartChar: bracketleft
Encoding: 91 91 158
Width: 815
VWidth: 0
Flags: HW
PickledData: "(dp1
S'org.pippin.gimp.org.kernagic'
p2
(dp3
S'lstem'
p4
I0
sS'rstem'
p5
I0
ssS'com.typemytype.robofont.layerData'
p6
(dp7
sS'org.robofab.postScriptHintData'
p8
(dp9
s."
LayerCount: 2
Fore
SplineSet
217 -254 m 1
 217 1480 l 1
 677 1480 l 1
 677 1354 l 1
 396 1354 l 1
 396 -127 l 1
 677 -127 l 1
 677 -254 l 1
 217 -254 l 1
EndSplineSet
EndChar

StartChar: bracketright
Encoding: 93 93 159
Width: 952
VWidth: 0
Flags: HW
PickledData: "(dp1
S'org.pippin.gimp.org.kernagic'
p2
(dp3
S'lstem'
p4
I0
sS'rstem'
p5
I0
ssS'com.typemytype.robofont.layerData'
p6
(dp7
sS'org.robofab.postScriptHintData'
p8
(dp9
s."
LayerCount: 2
Fore
SplineSet
279 -254 m 1
 279 -127 l 1
 561 -127 l 1
 561 1354 l 1
 279 1354 l 1
 279 1480 l 1
 740 1480 l 1
 740 -254 l 1
 279 -254 l 1
EndSplineSet
EndChar

StartChar: breve
Encoding: 728 728 160
Width: 872
VWidth: 0
Flags: HW
PickledData: "(dp1
S'org.robofab.postScriptHintData'
p2
(dp3
sS'com.typemytype.robofont.layerData'
p4
(dp5
s."
AnchorPoint: "top" 426 1067 mark 0
LayerCount: 2
Fore
SplineSet
422 1288 m 0
 286 1288 180 1366 180 1531 c 1
 295 1531 l 1
 295 1438 359 1398 422 1398 c 0
 487 1398 555 1438 555 1531 c 1
 667 1531 l 1
 667 1366 560 1288 422 1288 c 0
EndSplineSet
EndChar

StartChar: breveinvertedcomb
Encoding: 785 785 161
Width: 794
VWidth: 0
Flags: HW
PickledData: "(dp1
S'org.robofab.postScriptHintData'
p2
(dp3
sS'com.typemytype.robofont.layerData'
p4
(dp5
s."
AnchorPoint: "top" 410 1067 mark 0
LayerCount: 2
Fore
SplineSet
164 1288 m 1
 164 1452 269 1531 406 1531 c 0
 542 1531 650 1451 650 1288 c 1
 539 1288 l 1
 539 1379 469 1420 406 1420 c 0
 343 1420 278 1379 278 1288 c 1
 164 1288 l 1
EndSplineSet
EndChar

StartChar: brokenbar
Encoding: 166 166 162
Width: 641
VWidth: 0
Flags: HW
PickledData: "(dp1
S'org.pippin.gimp.org.kernagic'
p2
(dp3
S'lstem'
p4
I0
sS'rstem'
p5
I0
ssS'com.typemytype.robofont.layerData'
p6
(dp7
S'b'
(dp8
S'name'
p9
S'brokenbar'
p10
sS'lib'
p11
(dp12
sS'unicodes'
p13
(tsS'width'
p14
I653
sS'contours'
p15
(tsS'components'
p16
(tsS'anchors'
p17
(tsssS'org.robofab.postScriptHintData'
p18
(dp19
s."
LayerCount: 2
Fore
SplineSet
257 818 m 1
 257 1566 l 1
 387 1566 l 1
 387 818 l 1
 257 818 l 1
257 -221 m 1
 257 531 l 1
 387 531 l 1
 387 -221 l 1
 257 -221 l 1
EndSplineSet
EndChar

StartChar: bullet
Encoding: 8226 8226 163
Width: 909
VWidth: 0
Flags: HW
PickledData: "(dp1
S'org.pippin.gimp.org.kernagic'
p2
(dp3
S'lstem'
p4
I0
sS'rstem'
p5
I0
ssS'com.typemytype.robofont.layerData'
p6
(dp7
S'b'
(dp8
S'name'
p9
S'bullet'
p10
sS'lib'
p11
(dp12
sS'unicodes'
p13
(tsS'width'
p14
I908
sS'contours'
p15
(tsS'components'
p16
(tsS'anchors'
p17
(tsssS'org.robofab.postScriptHintData'
p18
(dp19
s."
LayerCount: 2
Fore
SplineSet
443 409 m 0
 277 409 129 529 129 738 c 0
 129 948 281 1072 449 1072 c 0
 615 1072 764 952 764 743 c 0
 764 532 611 409 443 409 c 0
EndSplineSet
EndChar

StartChar: c
Encoding: 99 99 164
Width: 1090
VWidth: 0
Flags: HW
PickledData: "(dp1
S'org.pippin.gimp.org.kernagic'
p2
(dp3
S'lstem'
p4
I0
sS'rstem'
p5
I696
ssS'com.typemytype.robofont.layerData'
p6
(dp7
sS'com.typemytype.robofont.guides'
p8
((dp9
S'y'
I417
sS'x'
I962
sS'magnetic'
p10
I5
sS'angle'
p11
F90
sS'isGlobal'
p12
I00
s(dp13
S'y'
I1020
sS'x'
I565
sg10
I5
sg11
F90
sg12
I00
s(dp14
S'y'
I994
sS'x'
I572
sg10
I5
sg11
F90
sg12
I00
stp15
sS'com.fontlab.hintData'
p16
(dp17
S'vhints'
p18
((dp19
S'position'
p20
I128
sS'width'
p21
I120
stp22
sS'hhints'
p23
((dp24
g20
I-19
sg21
I92
s(dp25
g20
I982
sg21
I92
stp26
ssS'org.robofab.postScriptHintData'
p27
(dp28
s."
HStem: -19 92 982 92
VStem: 128 120
AnchorPoint: "bot" 607 1 basechar 0
AnchorPoint: "top" 623 1083 basechar 0
LayerCount: 2
Fore
SplineSet
609 -20 m 0
 309 -20 118 198 118 543 c 0
 118 888 309 1106 609 1106 c 0
 845 1106 952 987 999 875 c 1
 888 811 l 1
 875 811 l 1
 826 904 754 972 617 972 c 0
 409 972 302 812 302 543 c 0
 302 275 408 114 615 114 c 0
 753 114 825 179 874 272 c 1
 888 272 l 1
 999 211 l 1
 953 99 845 -20 609 -20 c 0
EndSplineSet
EndChar

StartChar: caron
Encoding: 711 711 166
Width: 897
VWidth: 0
Flags: HW
PickledData: "(dp1
S'org.robofab.postScriptHintData'
p2
(dp3
sS'com.typemytype.robofont.layerData'
p4
(dp5
s."
AnchorPoint: "top" 443 1082 mark 0
LayerCount: 2
Fore
SplineSet
335 1239 m 1
 139 1584 l 1
 292 1584 l 1
 430 1354 l 1
 567 1584 l 1
 720 1584 l 1
 524 1239 l 1
 335 1239 l 1
EndSplineSet
EndChar

StartChar: caron.alt
Encoding: 65537 -1 167
Width: 739
VWidth: 0
Flags: HW
PickledData: "(dp1
S'org.robofab.postScriptHintData'
p2
(dp3
sS'com.typemytype.robofont.layerData'
p4
(dp5
s."
AnchorPoint: "caron.alt" 223 1082 mark 0
LayerCount: 2
Fore
SplineSet
466 1160 m 1
 502 1541 l 1
 677 1541 l 1
 597 1160 l 1
 466 1160 l 1
EndSplineSet
EndChar

StartChar: cedilla
Encoding: 184 184 172
Width: 683
VWidth: 0
Flags: HW
PickledData: "(dp1
S'org.robofab.postScriptHintData'
p2
(dp3
sS'com.typemytype.robofont.layerData'
p4
(dp5
s."
AnchorPoint: "bot" 398 11 mark 0
LayerCount: 2
Fore
SplineSet
351 -401 m 0
 296 -401 243 -390 193 -368 c 1
 224 -285 l 1
 265 -304 307 -312 345 -312 c 0
 427 -312 494 -273 494 -197 c 0
 494 -153 471 -106 385 -106 c 0
 369 -106 350 -107 329 -111 c 1
 328 -60 l 1
 364 -46 400 -40 433 -40 c 0
 527 -40 602 -94 602 -203 c 0
 602 -325 494 -401 351 -401 c 0
EndSplineSet
EndChar

StartChar: cent
Encoding: 162 162 173
Width: 1075
VWidth: 0
Flags: HW
PickledData: "(dp1
S'org.pippin.gimp.org.kernagic'
p2
(dp3
S'lstem'
p4
I0
sS'rstem'
p5
I0
ssS'com.typemytype.robofont.layerData'
p6
(dp7
sS'org.robofab.postScriptHintData'
p8
(dp9
s."
LayerCount: 2
Fore
SplineSet
539 -308 m 1
 654 -308 l 1
 668 -17 l 1
 863 1 957 109 999 211 c 1
 888 272 l 1
 874 272 l 1
 825 179 753 114 615 114 c 0
 408 114 302 275 302 543 c 0
 302 812 409 972 617 972 c 0
 754 972 826 904 875 811 c 1
 888 811 l 1
 999 875 l 1
 956 978 861 1088 661 1104 c 1
 663 1387 l 1
 550 1387 l 1
 540 1102 l 1
 280 1071 118 861 118 543 c 0
 118 226 280 16 539 -16 c 1
 539 -308 l 1
EndSplineSet
EndChar

StartChar: circumflex
Encoding: 710 710 174
Width: 884
VWidth: 0
Flags: HW
PickledData: "(dp1
S'org.robofab.postScriptHintData'
p2
(dp3
sS'com.typemytype.robofont.layerData'
p4
(dp5
s."
AnchorPoint: "top" 434 1082 mark 0
LayerCount: 2
Fore
SplineSet
138 1251 m 1
 334 1596 l 1
 523 1596 l 1
 719 1251 l 1
 566 1251 l 1
 429 1481 l 1
 291 1251 l 1
 138 1251 l 1
EndSplineSet
EndChar

StartChar: colon
Encoding: 58 58 175
Width: 651
VWidth: 0
Flags: HW
PickledData: "(dp1
S'org.pippin.gimp.org.kernagic'
p2
(dp3
S'lstem'
p4
I0
sS'rstem'
p5
I0
ssS'com.typemytype.robofont.layerData'
p6
(dp7
S'b'
(dp8
S'name'
p9
S'colon'
p10
sS'lib'
p11
(dp12
sS'unicodes'
p13
(tsS'width'
p14
I653
sS'contours'
p15
(tsS'components'
p16
(tsS'anchors'
p17
(tsssS'org.robofab.postScriptHintData'
p18
(dp19
s."
LayerCount: 2
Fore
SplineSet
322 836 m 0
 240 836 198 895 198 960 c 0
 198 1023 239 1085 322 1085 c 0
 404 1085 442 1023 442 960 c 0
 442 895 404 836 322 836 c 0
322 -10 m 0
 240 -10 198 49 198 114 c 0
 198 177 239 239 322 239 c 0
 404 239 442 177 442 114 c 0
 442 49 404 -10 322 -10 c 0
EndSplineSet
EndChar

StartChar: comma
Encoding: 44 44 176
Width: 622
VWidth: 0
Flags: HW
PickledData: "(dp1
S'org.pippin.gimp.org.kernagic'
p2
(dp3
S'lstem'
p4
I0
sS'rstem'
p5
I0
ssS'com.typemytype.robofont.layerData'
p6
(dp7
sS'org.robofab.postScriptHintData'
p8
(dp9
s."
LayerCount: 2
Fore
SplineSet
192 -305 m 1
 192 -305 231 227 231 237 c 1
 412 237 l 1
 412 149 l 2
 412 147 296 -305 296 -305 c 1
 192 -305 l 1
EndSplineSet
EndChar

StartChar: commaaccent
Encoding: 806 806 177
Width: 611
VWidth: 0
Flags: HW
PickledData: "(dp1
S'org.robofab.postScriptHintData'
p2
(dp3
s."
AnchorPoint: "bot" 328 0 mark 0
LayerCount: 2
Fore
SplineSet
196 -522 m 1
 202 -476 242 -206 242 -135 c 1
 412 -135 l 1
 412 -150 l 2
 412 -248 315 -522 315 -522 c 1
 196 -522 l 1
EndSplineSet
EndChar

StartChar: commaturnedabovecomb
Encoding: 786 786 178
Width: 600
VWidth: 0
Flags: HW
PickledData: "(dp1
S'org.robofab.postScriptHintData'
p2
(dp3
s."
AnchorPoint: "top" 296 1067 mark 0
LayerCount: 2
Fore
SplineSet
196 1282 m 1
 200 1305 l 1
 200 1345 305 1784 305 1784 c 1
 420 1784 l 1
 420 1784 390 1354 390 1282 c 1
 196 1282 l 1
EndSplineSet
EndChar

StartChar: copyright
Encoding: 169 169 179
Width: 1722
VWidth: 0
Flags: HW
PickledData: "(dp1
S'org.pippin.gimp.org.kernagic'
p2
(dp3
S'lstem'
p4
I0
sS'rstem'
p5
I0
ssS'com.typemytype.robofont.layerData'
p6
(dp7
sS'org.robofab.postScriptHintData'
p8
(dp9
s."
LayerCount: 2
Fore
SplineSet
773 -24 m 0
 390 -24 16 239 16 728 c 0
 16 1221 390 1483 773 1483 c 0
 1159 1483 1543 1221 1543 728 c 0
 1543 239 1160 -24 773 -24 c 0
773 66 m 0
 1109 66 1432 300 1432 728 c 0
 1432 1158 1109 1391 773 1391 c 0
 439 1391 119 1159 119 728 c 0
 119 299 439 66 773 66 c 0
794 236 m 0
 536 236 315 435 315 727 c 0
 315 1012 531 1219 787 1219 c 0
 888 1219 987 1190 1075 1132 c 1
 1031 1042 l 1
 957 1095 865 1119 792 1119 c 0
 600 1119 442 962 442 732 c 0
 442 485 601 334 799 334 c 0
 879 334 957 352 1043 404 c 1
 1078 317 l 1
 992 263 894 236 794 236 c 0
EndSplineSet
EndChar

StartChar: currency
Encoding: 164 164 180
Width: 1170
VWidth: 0
Flags: HW
PickledData: "(dp1
S'org.pippin.gimp.org.kernagic'
p2
(dp3
S'lstem'
p4
I0
sS'rstem'
p5
I0
ssS'com.typemytype.robofont.layerData'
p6
(dp7
S'b'
(dp8
S'name'
p9
S'currency'
p10
sS'lib'
p11
(dp12
sS'unicodes'
p13
(tsS'width'
p14
I1164
sS'contours'
p15
(tsS'components'
p16
(tsS'anchors'
p17
(tsssS'org.robofab.postScriptHintData'
p18
(dp19
s."
LayerCount: 2
Fore
SplineSet
581 404 m 0
 767 404 884 550 884 720 c 0
 884 892 766 1039 581 1039 c 0
 397 1039 279 892 279 720 c 0
 279 549 397 404 581 404 c 0
1020 225 m 1
 839 399 l 1
 768 341 680 308 581 308 c 0
 482 308 395 340 323 400 c 1
 143 226 l 1
 77 296 l 1
 258 472 l 1
 205 544 178 629 178 720 c 0
 178 812 204 897 258 970 c 1
 76 1149 l 1
 143 1216 l 1
 322 1043 l 1
 394 1103 484 1136 581 1136 c 0
 679 1136 768 1101 839 1042 c 1
 1020 1216 l 1
 1084 1146 l 1
 904 970 l 1
 957 895 984 809 984 720 c 0
 984 627 957 543 905 472 c 1
 1083 295 l 1
 1020 225 l 1
EndSplineSet
EndChar

StartChar: d
Encoding: 100 100 181
Width: 1231
VWidth: 0
Flags: HW
PickledData: "(dp1
S'org.pippin.gimp.org.kernagic'
p2
(dp3
S'lstem'
p4
I0
sS'rstem'
p5
I0
ssS'com.typemytype.robofont.layerData'
p6
(dp7
sS'com.fontlab.hintData'
p8
(dp9
S'vhints'
p10
((dp11
S'position'
p12
I114
sS'width'
p13
I166
s(dp14
g12
I907
sg13
I161
s(dp15
g12
I930
sg13
I138
stp16
sS'hhints'
p17
((dp18
g12
I-19
sg13
I127
s(dp19
g12
I953
sg13
I127
stp20
ssS'org.robofab.postScriptHintData'
p21
(dp22
s."
HStem: -19 127 953 127
VStem: 114 166 907 161 930 138
AnchorPoint: "mid" 970 1308 basechar 0
AnchorPoint: "caron.alt" 1135 1197 basechar 0
AnchorPoint: "top" 540 1082 basechar 0
LayerCount: 2
Fore
SplineSet
602 112 m 0
 718 112 816 151 880 232 c 1
 880 842 l 1
 824 927 720 972 602 972 c 0
 401 972 302 814 302 547 c 0
 302 274 398 112 602 112 c 0
584 -20 m 0
 281 -20 118 210 118 544 c 0
 118 882 292 1103 589 1103 c 0
 724 1103 818 1056 879 988 c 1
 874 1154 l 1
 874 1540 l 1
 1059 1560 l 1
 1059 0 l 1
 905 0 l 1
 895 120 l 1
 816 26 695 -20 584 -20 c 0
EndSplineSet
EndChar

StartChar: dagger
Encoding: 8224 8224 182
Width: 1056
VWidth: 0
Flags: HW
PickledData: "(dp1
S'org.pippin.gimp.org.kernagic'
p2
(dp3
S'lstem'
p4
I0
sS'rstem'
p5
I0
ssS'com.typemytype.robofont.layerData'
p6
(dp7
S'b'
(dp8
S'name'
p9
S'dagger'
p10
sS'lib'
p11
(dp12
sS'unicodes'
p13
(tsS'width'
p14
I1050
sS'contours'
p15
(tsS'components'
p16
(tsS'anchors'
p17
(tsssS'org.robofab.postScriptHintData'
p18
(dp19
s."
LayerCount: 2
Fore
SplineSet
460 98 m 1
 460 999 l 1
 172 999 l 1
 172 1107 l 1
 460 1107 l 1
 460 1490 l 1
 585 1490 l 1
 585 1107 l 1
 879 1107 l 1
 879 999 l 1
 586 999 l 1
 586 98 l 1
 460 98 l 1
EndSplineSet
EndChar

StartChar: daggerdbl
Encoding: 8225 8225 183
Width: 1033
VWidth: 0
Flags: HW
PickledData: "(dp1
S'org.pippin.gimp.org.kernagic'
p2
(dp3
S'lstem'
p4
I0
sS'rstem'
p5
I0
ssS'com.typemytype.robofont.layerData'
p6
(dp7
S'b'
(dp8
S'name'
p9
S'daggerdbl'
p10
sS'lib'
p11
(dp12
sS'unicodes'
p13
(tsS'width'
p14
I1022
sS'contours'
p15
(tsS'components'
p16
(tsS'anchors'
p17
(tsssS'org.robofab.postScriptHintData'
p18
(dp19
s."
LayerCount: 2
Fore
SplineSet
457 62 m 1
 457 447 l 1
 178 447 l 1
 178 549 l 1
 457 549 l 1
 457 981 l 1
 178 981 l 1
 178 1087 l 1
 457 1087 l 1
 457 1472 l 1
 581 1472 l 1
 581 1087 l 1
 861 1087 l 1
 861 981 l 1
 585 981 l 1
 585 549 l 1
 860 549 l 1
 860 447 l 1
 584 447 l 1
 584 62 l 1
 457 62 l 1
EndSplineSet
EndChar

StartChar: dblgravecomb
Encoding: 783 783 184
Width: 883
VWidth: 0
Flags: HW
PickledData: "(dp1
S'org.robofab.postScriptHintData'
p2
(dp3
sS'com.typemytype.robofont.layerData'
p4
(dp5
s."
AnchorPoint: "top" 487 1067 mark 0
LayerCount: 2
Fore
SplineSet
562 1248 m 1
 372 1599 l 1
 536 1599 l 1
 672 1248 l 1
 562 1248 l 1
289 1248 m 1
 63 1599 l 1
 243 1599 l 1
 395 1248 l 1
 289 1248 l 1
EndSplineSet
EndChar

StartChar: degree
Encoding: 176 176 187
Width: 874
VWidth: 0
Flags: HW
PickledData: "(dp1
S'org.pippin.gimp.org.kernagic'
p2
(dp3
S'lstem'
p4
I0
sS'rstem'
p5
I0
ssS'com.typemytype.robofont.layerData'
p6
(dp7
sS'org.robofab.postScriptHintData'
p8
(dp9
s."
LayerCount: 2
Fore
SplineSet
429 891 m 0
 269 891 129 1014 129 1188 c 0
 129 1360 269 1480 429 1480 c 0
 592 1480 732 1360 732 1188 c 0
 732 1021 596 891 429 891 c 0
429 992 m 0
 534 992 619 1071 619 1187 c 0
 619 1303 534 1380 430 1380 c 0
 327 1380 241 1303 241 1187 c 0
 241 1070 325 992 429 992 c 0
EndSplineSet
EndChar

StartChar: dieresis
Encoding: 168 168 188
Width: 929
VWidth: 0
Flags: HW
PickledData: "(dp1
S'org.robofab.postScriptHintData'
p2
(dp3
sS'com.typemytype.robofont.layerData'
p4
(dp5
s."
AnchorPoint: "top" 462 1082 mark 0
LayerCount: 2
Fore
SplineSet
670 1292 m 0
 596 1292 563 1340 563 1400 c 0
 563 1458 595 1507 670 1507 c 0
 742 1507 774 1458 774 1400 c 0
 774 1340 742 1292 670 1292 c 0
238 1292 m 0
 165 1292 132 1340 132 1400 c 0
 132 1458 163 1507 238 1507 c 0
 310 1507 342 1458 342 1400 c 0
 342 1340 310 1292 238 1292 c 0
EndSplineSet
EndChar

StartChar: divide
Encoding: 247 247 189
Width: 1168
VWidth: 0
Flags: HW
PickledData: "(dp1
S'org.pippin.gimp.org.kernagic'
p2
(dp3
S'lstem'
p4
I0
sS'rstem'
p5
I0
ssS'com.typemytype.robofont.layerData'
p6
(dp7
sS'org.robofab.postScriptHintData'
p8
(dp9
s."
LayerCount: 2
Fore
SplineSet
483 891 m 1
 483 1099 l 1
 683 1099 l 1
 683 891 l 1
 483 891 l 1
101 505 m 1
 101 648 l 1
 1061 648 l 1
 1061 505 l 1
 101 505 l 1
483 31 m 1
 483 243 l 1
 680 243 l 1
 680 31 l 1
 483 31 l 1
EndSplineSet
EndChar

StartChar: dollar
Encoding: 36 36 190
Width: 1221
VWidth: 0
Flags: HW
PickledData: "(dp1
S'org.pippin.gimp.org.kernagic'
p2
(dp3
S'lstem'
p4
I0
sS'rstem'
p5
I0
ssS'com.typemytype.robofont.layerData'
p6
(dp7
S'b'
(dp8
S'name'
p9
S'dollar'
p10
sS'lib'
p11
(dp12
sS'unicodes'
p13
(tsS'width'
p14
I1221
sS'contours'
p15
(tsS'components'
p16
(tsS'anchors'
p17
(tsssS'org.robofab.postScriptHintData'
p18
(dp19
s."
LayerCount: 2
Fore
SplineSet
548 -298 m 1
 667 -298 l 1
 679 -16 l 1
 896 4 1101 112 1101 383 c 0
 1101 641 961 712 725 806 c 1
 519 890 l 2
 358 956 310 992 310 1107 c 0
 310 1276 450 1327 613 1327 c 0
 759 1327 885 1277 962 1189 c 1
 977 1189 l 1
 1078 1291 l 1
 990 1392 851 1458 689 1473 c 1
 689 1764 l 1
 564 1764 l 1
 551 1474 l 1
 321 1459 119 1366 119 1084 c 0
 119 881 235 818 436 736 c 2
 641 652 l 1
 855 563 920 523 920 384 c 0
 920 199 782 131 598 131 c 0
 423 131 302 198 213 290 c 1
 200 290 l 1
 95 177 l 1
 170 86 336 -5 548 -18 c 1
 548 -298 l 1
EndSplineSet
EndChar

StartChar: dotaccent
Encoding: 729 729 191
Width: 447
VWidth: 0
Flags: HW
PickledData: "(dp1
S'org.robofab.postScriptHintData'
p2
(dp3
sS'com.typemytype.robofont.layerData'
p4
(dp5
s."
AnchorPoint: "top" 222 1082 mark 0
LayerCount: 2
Fore
SplineSet
223 1303 m 0
 140 1303 93 1351 93 1430 c 0
 93 1506 140 1553 223 1553 c 0
 305 1553 352 1506 352 1430 c 0
 352 1351 305 1303 223 1303 c 0
EndSplineSet
EndChar

StartChar: dotlessi
Encoding: 305 305 192
Width: 525
VWidth: 0
Flags: HW
PickledData: "(dp1
S'org.pippin.gimp.org.kernagic'
p2
(dp3
S'lstem'
p4
I0
sS'rstem'
p5
I0
ssS'com.typemytype.robofont.layerData'
p6
(dp7
sS'org.robofab.postScriptHintData'
p8
(dp9
s."
AnchorPoint: "ogonek" 280 0 basechar 0
AnchorPoint: "top" 278 1082 basechar 0
LayerCount: 2
Fore
SplineSet
183 0 m 1
 183 1082 l 1
 362 1082 l 1
 362 0 l 1
 183 0 l 1
EndSplineSet
EndChar

StartChar: dotlessj
Encoding: 567 567 193
Width: 591
VWidth: 0
Flags: HW
PickledData: "(dp1
S'org.pippin.gimp.org.kernagic'
p2
(dp3
S'lstem'
p4
I0
sS'rstem'
p5
I0
ssS'com.typemytype.robofont.layerData'
p6
(dp7
sS'com.fontlab.hintData'
p8
(dp9
S'vhints'
p10
((dp11
S'position'
p12
I111
sS'width'
p13
I142
stp14
sS'hhints'
p15
((dp16
g12
I-479
sg13
I112
stp17
ssS'org.robofab.postScriptHintData'
p18
(dp19
s."
HStem: -479 112
VStem: 111 142
LayerCount: 2
Fore
SplineSet
49 -392 m 1
 21 -252 l 1
 85 -237 l 1
 236 -205 240 -166 240 21 c 2
 240 1082 l 1
 419 1082 l 1
 419 -12 l 2
 419 -274 332 -348 111 -382 c 1
 49 -392 l 1
EndSplineSet
EndChar

StartChar: e
Encoding: 101 101 194
Width: 1142
VWidth: 0
Flags: HW
PickledData: "(dp1
S'org.pippin.gimp.org.kernagic'
p2
(dp3
S'lstem'
p4
I0
sS'rstem'
p5
I747
ssS'com.typemytype.robofont.layerData'
p6
(dp7
sS'com.fontlab.hintData'
p8
(dp9
S'hhints'
p10
((dp11
S'position'
p12
I-19
sS'width'
p13
I94
s(dp14
g12
I982
sg13
I92
stp15
ssS'org.robofab.postScriptHintData'
p16
(dp17
s."
HStem: -19 94 982 92
AnchorPoint: "bot" 630 1 basechar 0
AnchorPoint: "ogonek" 899 48 basechar 0
AnchorPoint: "top" 623 1082 basechar 0
LayerCount: 2
Fore
SplineSet
305 626 m 1
 884 626 l 1
 880 846 799 973 625 973 c 0
 447 973 325 840 305 626 c 1
637 -20 m 0
 344 -20 120 191 120 538 c 0
 120 898 343 1106 616 1106 c 0
 880 1106 1036 920 1036 620 c 0
 1036 589 1028 513 1028 510 c 1
 302 510 l 1
 318 232 465 113 659 113 c 0
 783 113 863 152 952 203 c 1
 965 203 l 1
 1007 86 l 1
 917 25 789 -20 637 -20 c 0
EndSplineSet
EndChar

StartChar: eight
Encoding: 56 56 202
Width: 1258
VWidth: 0
Flags: HW
PickledData: "(dp1
S'org.pippin.gimp.org.kernagic'
p2
(dp3
S'lstem'
p4
I0
sS'rstem'
p5
I0
ssS'com.typemytype.robofont.layerData'
p6
(dp7
sS'org.robofab.postScriptHintData'
p8
(dp9
s."
LayerCount: 2
Fore
SplineSet
629 819 m 1
 810 861 900 962 900 1118 c 0
 900 1260 793 1343 629 1343 c 0
 466 1343 356 1260 356 1118 c 0
 356 962 449 861 629 819 c 1
629 117 m 0
 836 117 932 203 932 381 c 0
 932 551 804 657 629 697 c 1
 454 657 322 557 322 380 c 0
 322 208 428 117 629 117 c 0
629 -20 m 0
 365 -20 151 106 151 365 c 0
 151 570 263 698 453 764 c 1
 299 815 181 934 181 1115 c 0
 181 1348 370 1476 630 1476 c 0
 890 1476 1075 1348 1075 1115 c 0
 1075 934 967 824 808 766 c 1
 989 706 1106 556 1106 365 c 0
 1106 106 894 -20 629 -20 c 0
EndSplineSet
EndChar

StartChar: emdash
Encoding: 8212 8212 205
Width: 2136
VWidth: 0
Flags: HW
PickledData: "(dp1
S'org.robofab.postScriptHintData'
p2
(dp3
sS'com.typemytype.robofont.layerData'
p4
(dp5
s."
LayerCount: 2
Fore
SplineSet
60 518 m 1
 60 657 l 1
 2076 657 l 1
 2076 518 l 1
 60 518 l 1
EndSplineSet
EndChar

StartChar: endash
Encoding: 8211 8211 206
Width: 1319
VWidth: 0
Flags: HW
PickledData: "(dp1
S'org.pippin.gimp.org.kernagic'
p2
(dp3
S'lstem'
p4
I0
sS'rstem'
p5
I0
ssS'com.typemytype.robofont.layerData'
p6
(dp7
sS'org.robofab.postScriptHintData'
p8
(dp9
s."
LayerCount: 2
Fore
SplineSet
76 525 m 1
 76 654 l 1
 1245 654 l 1
 1245 525 l 1
 76 525 l 1
EndSplineSet
EndChar

StartChar: eng
Encoding: 331 331 207
Width: 1196
VWidth: 0
Flags: HW
PickledData: "(dp1
S'org.robofab.postScriptHintData'
p2
(dp3
sS'com.typemytype.robofont.layerData'
p4
(dp5
s."
LayerCount: 2
Fore
SplineSet
332 872 m 1
 398 1031 520 1106 697 1106 c 0
 941 1106 1051 945 1051 652 c 2
 1051 -14 l 2
 1051 -339 913 -431 470 -432 c 1
 468 -294 l 1
 837 -294 873 -228 874 -10 c 1
 874 667 l 2
 874 850 824 972 660 972 c 0
 435 972 344 808 344 614 c 2
 344 0 l 1
 165 0 l 1
 165 1082 l 1
 313 1082 l 1
 332 872 l 1
EndSplineSet
EndChar

StartChar: equal
Encoding: 61 61 209
Width: 1070
VWidth: 0
Flags: HW
PickledData: "(dp1
S'org.pippin.gimp.org.kernagic'
p2
(dp3
S'lstem'
p4
I0
sS'rstem'
p5
I0
ssS'com.typemytype.robofont.layerData'
p6
(dp7
S'b'
(dp8
S'name'
p9
S'equal'
p10
sS'lib'
p11
(dp12
sS'unicodes'
p13
(tsS'width'
p14
I1050
sS'contours'
p15
(tsS'components'
p16
(tsS'anchors'
p17
(tsssS'org.robofab.postScriptHintData'
p18
(dp19
s."
LayerCount: 2
Fore
SplineSet
128 807 m 1
 128 956 l 1
 947 956 l 1
 947 807 l 1
 128 807 l 1
128 419 m 1
 128 569 l 1
 947 569 l 1
 947 419 l 1
 128 419 l 1
EndSplineSet
EndChar

StartChar: estimated
Encoding: 8494 8494 210
Width: 1281
VWidth: 0
Flags: HW
PickledData: "(dp1
S'org.robofab.postScriptHintData'
p2
(dp3
sS'com.typemytype.robofont.layerData'
p4
(dp5
S'b'
(dp6
S'name'
p7
S'estimated'
p8
sS'lib'
p9
(dp10
sS'unicodes'
p11
(tsS'width'
p12
I1223
sS'contours'
p13
(tsS'components'
p14
(tsS'anchors'
p15
(tsss."
LayerCount: 2
Fore
SplineSet
329 820 m 1
 1002 820 l 1
 1002 1052 867 1255 660 1255 c 0
 490 1255 344 1079 329 820 c 1
672 206 m 0
 294 206 108 445 108 761 c 0
 108 1077 335 1314 654 1314 c 0
 971 1314 1117 1085 1117 741 c 1
 327 741 l 1
 328 468 445 279 672 279 c 0
 851 279 961 359 1059 463 c 1
 1109 412 l 1
 1011 295 877 206 672 206 c 0
EndSplineSet
EndChar

StartChar: eth
Encoding: 240 240 211
Width: 1222
VWidth: 0
Flags: HW
PickledData: "(dp1
S'org.pippin.gimp.org.kernagic'
p2
(dp3
S'lstem'
p4
I0
sS'rstem'
p5
I0
ssS'com.typemytype.robofont.layerData'
p6
(dp7
sS'org.robofab.postScriptHintData'
p8
(dp9
s."
LayerCount: 2
Fore
SplineSet
607 114 m 0
 830 114 944 265 944 496 c 0
 944 678 823 847 601 847 c 0
 391 847 269 693 269 488 c 0
 269 296 380 114 607 114 c 0
601 -20 m 0
 278 -20 104 219 104 489 c 0
 104 780 303 974 584 974 c 0
 725 974 792 915 850 872 c 1
 797 969 697 1103 525 1274 c 1
 270 1173 l 1
 221 1288 l 1
 441 1375 l 1
 227 1580 l 1
 421 1580 l 1
 572 1429 l 1
 860 1540 l 1
 910 1427 l 1
 660 1332 l 1
 846 1129 946 999 1013 870 c 0
 1065 768 1099 628 1099 490 c 0
 1099 199 933 -20 601 -20 c 0
EndSplineSet
EndChar

StartChar: exclam
Encoding: 33 33 212
Width: 708
VWidth: 0
Flags: HW
PickledData: "(dp1
S'org.pippin.gimp.org.kernagic'
p2
(dp3
S'lstem'
p4
I0
sS'rstem'
p5
I0
ssS'com.typemytype.robofont.layerData'
p6
(dp7
sS'org.robofab.postScriptHintData'
p8
(dp9
s."
LayerCount: 2
Fore
SplineSet
345 -13 m 0
 264 -13 227 48 227 108 c 0
 227 168 264 228 345 228 c 0
 426 228 463 168 463 108 c 0
 463 46 426 -13 345 -13 c 0
309 432 m 1
 251 1338 l 1
 251 1468 l 1
 432 1468 l 1
 432 1338 l 1
 380 432 l 1
 309 432 l 1
EndSplineSet
EndChar

StartChar: f
Encoding: 102 102 214
Width: 760
VWidth: 0
Flags: HW
PickledData: "(dp1
S'org.pippin.gimp.org.kernagic'
p2
(dp3
S'lstem'
p4
I182
sS'rstem'
p5
I417
ssS'com.typemytype.robofont.layerData'
p6
(dp7
sS'com.fontlab.hintData'
p8
(dp9
S'vhints'
p10
((dp11
S'position'
p12
I269
sS'width'
p13
I166
stp14
sS'hhints'
p15
((dp16
g12
I952
sg13
I89
s(dp17
g12
I1358
sg13
I122
stp18
ssS'org.robofab.postScriptHintData'
p19
(dp20
s."
HStem: 952 89 1358 122
VStem: 269 166
AnchorPoint: "top" 392 1456 basechar 0
LayerCount: 2
Fore
SplineSet
258 0 m 1
 258 973 l 1
 67 973 l 1
 72 1065 l 1
 258 1079 l 1
 258 1162 l 2
 258 1456 370 1517 565 1517 c 0
 661 1517 726 1501 729 1500 c 1
 718 1378 l 1
 712 1379 648 1387 612 1387 c 0
 472 1387 436 1345 436 1162 c 2
 436 1082 l 1
 709 1082 l 1
 709 973 l 1
 436 973 l 1
 436 0 l 1
 258 0 l 1
EndSplineSet
EndChar

StartChar: five
Encoding: 53 53 215
Width: 1258
VWidth: 0
Flags: HW
PickledData: "(dp1
S'org.pippin.gimp.org.kernagic'
p2
(dp3
S'lstem'
p4
I0
sS'rstem'
p5
I0
ssS'com.typemytype.robofont.layerData'
p6
(dp7
sS'org.robofab.postScriptHintData'
p8
(dp9
s."
LayerCount: 2
Fore
SplineSet
624 -20 m 0
 402 -20 243 92 179 193 c 1
 282 294 l 1
 297 294 l 1
 378 186 477 132 622 132 c 0
 839 132 944 296 944 471 c 0
 944 638 847 799 663 799 c 0
 558 799 462 756 400 675 c 1
 254 698 l 1
 300 1456 l 1
 1044 1456 l 1
 1025 1314 l 1
 468 1314 l 1
 422 835 l 1
 493 898 577 936 691 936 c 0
 983 936 1133 705 1133 472 c 0
 1133 222 965 -20 624 -20 c 0
EndSplineSet
EndChar

StartChar: florin
Encoding: 402 402 217
Width: 1028
VWidth: 0
Flags: HW
PickledData: "(dp1
S'org.robofab.postScriptHintData'
p2
(dp3
s."
LayerCount: 2
Fore
SplineSet
99 -268 m 0
 65 -268 30 -263 -6 -252 c 1
 14 -167 l 1
 51 -174 81 -178 108 -178 c 0
 277 -178 263 -39 300 122 c 1
 504 985 l 1
 333 985 l 1
 350 1067 l 1
 517 1067 l 1
 550 1241 l 2
 584 1418 676 1548 863 1548 c 0
 991 1548 1092 1490 1093 1299 c 1
 961 1299 l 1
 959 1403 933 1457 872 1457 c 0
 773 1457 745 1363 724 1257 c 2
 688 1067 l 1
 912 1067 l 1
 896 985 l 1
 671 985 l 1
 469 122 l 2
 410 -132 269 -268 99 -268 c 0
EndSplineSet
EndChar

StartChar: foundryicon
Encoding: 65540 -1 218
Width: 1347
VWidth: 0
Flags: HW
PickledData: "(dp1
S'org.robofab.postScriptHintData'
p2
(dp3
s."
LayerCount: 2
Fore
SplineSet
280 2 m 1
 423 461 l 1
 34 755 l 1
 519 755 l 1
 669 1215 l 1
 828 755 l 1
 1313 755 l 1
 922 461 l 1
 1066 2 l 1
 669 278 l 1
 280 2 l 1
485 405 m 1
 591 405 l 1
 591 552 l 1
 761 405 l 1
 867 405 l 1
 867 672 l 1
 761 672 l 1
 761 523 l 1
 591 672 l 1
 485 672 l 1
 485 405 l 1
EndSplineSet
EndChar

StartChar: four
Encoding: 52 52 219
Width: 1258
VWidth: 0
Flags: HW
PickledData: "(dp1
S'org.pippin.gimp.org.kernagic'
p2
(dp3
S'lstem'
p4
I0
sS'rstem'
p5
I0
ssS'com.typemytype.robofont.layerData'
p6
(dp7
sS'org.robofab.postScriptHintData'
p8
(dp9
s."
LayerCount: 2
Fore
SplineSet
312 516 m 1
 779 516 l 1
 779 1237 l 1
 312 516 l 1
779 0 m 1
 779 373 l 1
 179 373 l 1
 134 518 l 1
 765 1456 l 1
 958 1456 l 1
 958 516 l 1
 1132 516 l 1
 1120 373 l 1
 958 373 l 1
 958 0 l 1
 779 0 l 1
EndSplineSet
EndChar

StartChar: fraction
Encoding: 8260 8260 220
Width: 1049
VWidth: 0
Flags: HW
PickledData: "(dp1
S'org.robofab.postScriptHintData'
p2
(dp3
s."
LayerCount: 2
Fore
SplineSet
131 0 m 1
 782 1471 l 1
 932 1471 l 1
 278 0 l 1
 131 0 l 1
EndSplineSet
EndChar

StartChar: g
Encoding: 103 103 221
Width: 1208
VWidth: 0
Flags: HW
PickledData: "(dp1
S'org.pippin.gimp.org.kernagic'
p2
(dp3
S'lstem'
p4
I0
sS'rstem'
p5
I0
ssS'com.typemytype.robofont.layerData'
p6
(dp7
sS'com.fontlab.hintData'
p8
(dp9
S'vhints'
p10
((dp11
S'position'
p12
I128
sS'width'
p13
I122
s(dp14
g12
I977
sg13
I125
s(dp15
g12
I977
sg13
I36
stp16
sS'hhints'
p17
((dp18
g12
I-426
sg13
I101
s(dp19
g12
I0
sg13
I93
s(dp20
g12
I982
sg13
I92
stp21
ssS'org.robofab.postScriptHintData'
p22
(dp23
s."
HStem: -426 101 0 93 982 92
VStem: 128 122 977 125 977 36
AnchorPoint: "top" 604 1082 basechar 0
LayerCount: 2
Fore
SplineSet
598 113 m 0
 718 113 819 159 876 235 c 1
 876 833 l 1
 811 925 719 972 596 972 c 0
 395 972 296 808 296 547 c 0
 296 279 391 113 598 113 c 0
560 -485 m 0
 436 -485 315 -460 232 -430 c 1
 247 -291 l 1
 269 -291 l 1
 351 -325 464 -346 557 -346 c 0
 765 -346 879 -262 879 7 c 1
 878 98 l 1
 798 12 683 -17 582 -17 c 0
 283 -17 113 202 113 546 c 0
 113 885 294 1106 586 1106 c 0
 725 1106 825 1047 887 969 c 1
 895 1082 l 1
 1047 1082 l 1
 1047 53 l 2
 1047 -307 914 -485 560 -485 c 0
EndSplineSet
EndChar

StartChar: germandbls
Encoding: 223 223 227
Width: 1279
VWidth: 0
Flags: HW
PickledData: "(dp1
S'org.pippin.gimp.org.kernagic'
p2
(dp3
S'lstem'
p4
I0
sS'rstem'
p5
I0
ssS'com.typemytype.robofont.layerData'
p6
(dp7
S'b'
(dp8
S'name'
p9
S'germandbls'
p10
sS'lib'
p11
(dp12
sS'unicodes'
p13
(tsS'width'
p14
I1278
sS'contours'
p15
(tsS'components'
p16
(tsS'anchors'
p17
(tsssS'org.robofab.postScriptHintData'
p18
(dp19
s."
LayerCount: 2
Fore
SplineSet
850 -20 m 0
 726 -20 588 17 507 57 c 1
 553 189 l 1
 607 160 716 122 824 122 c 0
 949 122 1000 203 1000 294 c 0
 1000 506 625 602 625 800 c 0
 625 967 827 1026 827 1231 c 0
 827 1339 759 1410 626 1410 c 0
 443 1410 344 1317 344 1077 c 2
 344 1 l 1
 166 1 l 1
 166 1078 l 2
 166 1372 322 1550 620 1550 c 0
 848 1550 996 1423 996 1231 c 0
 996 1015 786 905 786 815 c 0
 786 702 1177 595 1177 296 c 0
 1177 102 1055 -20 850 -20 c 0
EndSplineSet
EndChar

StartChar: grave
Encoding: 96 96 228
Width: 924
VWidth: 0
Flags: HW
PickledData: "(dp1
S'org.robofab.postScriptHintData'
p2
(dp3
sS'com.typemytype.robofont.layerData'
p4
(dp5
s."
AnchorPoint: "top" 472 1067 mark 0
LayerCount: 2
Fore
SplineSet
404 1211 m 1
 97 1587 l 1
 325 1587 l 1
 521 1211 l 1
 404 1211 l 1
EndSplineSet
EndChar

StartChar: greater
Encoding: 62 62 229
Width: 1112
VWidth: 0
Flags: HW
PickledData: "(dp1
S'org.pippin.gimp.org.kernagic'
p2
(dp3
S'lstem'
p4
I0
sS'rstem'
p5
I0
ssS'com.typemytype.robofont.layerData'
p6
(dp7
S'b'
(dp8
S'name'
p9
S'greater'
p10
sS'lib'
p11
(dp12
sS'unicodes'
p13
(tsS'width'
p14
I1107
sS'contours'
p15
(tsS'components'
p16
(tsS'anchors'
p17
(tsssS'org.robofab.postScriptHintData'
p18
(dp19
s."
LayerCount: 2
Fore
SplineSet
94 144 m 1
 94 296 l 1
 824 646 l 1
 96 1032 l 1
 96 1182 l 1
 1026 686 l 1
 1026 593 l 1
 94 144 l 1
EndSplineSet
EndChar

StartChar: greaterequal
Encoding: 8805 8805 230
Width: 1194
VWidth: 0
Flags: HW
PickledData: "(dp1
S'org.pippin.gimp.org.kernagic'
p2
(dp3
S'lstem'
p4
I0
sS'rstem'
p5
I0
ssS'com.typemytype.robofont.layerData'
p6
(dp7
S'b'
(dp8
S'name'
p9
S'greaterequal'
p10
sS'lib'
p11
(dp12
sS'unicodes'
p13
(tsS'width'
p14
I1192
sS'contours'
p15
(tsS'components'
p16
(tsS'anchors'
p17
(tsssS'org.robofab.postScriptHintData'
p18
(dp19
s."
LayerCount: 2
Fore
SplineSet
129 8 m 1
 129 136 l 1
 1064 137 l 1
 1064 8 l 1
 129 8 l 1
158 235 m 1
 158 378 l 1
 871 758 l 1
 161 1163 l 1
 161 1309 l 1
 1045 799 l 1
 1045 716 l 1
 158 235 l 1
EndSplineSet
EndChar

StartChar: guillemotleft
Encoding: 171 171 231
Width: 999
VWidth: 0
Flags: HW
PickledData: "(dp1
S'org.pippin.gimp.org.kernagic'
p2
(dp3
S'lstem'
p4
I0
sS'rstem'
p5
I0
ssS'com.typemytype.robofont.layerData'
p6
(dp7
S'b'
(dp8
S'name'
p9
S'guillemotleft'
p10
sS'lib'
p11
(dp12
sS'unicodes'
p13
(tsS'width'
p14
I994
sS'contours'
p15
(tsS'components'
p16
(tsS'anchors'
p17
(tsssS'org.robofab.postScriptHintData'
p18
(dp19
s."
LayerCount: 2
Fore
SplineSet
729 147 m 1
 443 550 l 1
 732 957 l 1
 891 957 l 1
 610 553 l 1
 885 147 l 1
 729 147 l 1
371 147 m 1
 84 550 l 1
 375 957 l 1
 534 957 l 1
 253 553 l 1
 527 147 l 1
 371 147 l 1
EndSplineSet
EndChar

StartChar: guillemotright
Encoding: 187 187 232
Width: 998
VWidth: 0
Flags: HW
PickledData: "(dp1
S'org.pippin.gimp.org.kernagic'
p2
(dp3
S'lstem'
p4
I0
sS'rstem'
p5
I0
ssS'com.typemytype.robofont.layerData'
p6
(dp7
sS'org.robofab.postScriptHintData'
p8
(dp9
s."
LayerCount: 2
Fore
SplineSet
606 147 m 1
 450 147 l 1
 724 553 l 1
 445 957 l 1
 604 957 l 1
 893 551 l 1
 606 147 l 1
249 147 m 1
 93 147 l 1
 368 553 l 1
 89 957 l 1
 248 957 l 1
 536 551 l 1
 249 147 l 1
EndSplineSet
EndChar

StartChar: guilsinglleft
Encoding: 8249 8249 233
Width: 630
VWidth: 0
Flags: HW
PickledData: "(dp1
S'org.robofab.postScriptHintData'
p2
(dp3
s."
LayerCount: 2
Fore
SplineSet
383 150 m 1
 98 554 l 1
 387 963 l 1
 548 963 l 1
 265 556 l 1
 540 150 l 1
 383 150 l 1
EndSplineSet
EndChar

StartChar: guilsinglright
Encoding: 8250 8250 234
Width: 763
VWidth: 0
Flags: HW
PickledData: "(dp1
S'org.pippin.gimp.org.kernagic'
p2
(dp3
S'lstem'
p4
I0
sS'rstem'
p5
I0
ssS'com.typemytype.robofont.layerData'
p6
(dp7
S'b'
(dp8
S'name'
p9
S'guilsinglright'
p10
sS'lib'
p11
(dp12
sS'unicodes'
p13
(tsS'width'
p14
I766
sS'contours'
p15
(tsS'components'
p16
(tsS'anchors'
p17
(tsssS'org.robofab.postScriptHintData'
p18
(dp19
s."
LayerCount: 2
Fore
SplineSet
154 150 m 1
 434 571 l 1
 151 1000 l 1
 311 1000 l 1
 607 571 l 1
 314 150 l 1
 154 150 l 1
EndSplineSet
EndChar

StartChar: h
Encoding: 104 104 235
Width: 1215
VWidth: 0
Flags: HW
PickledData: "(dp1
S'org.pippin.gimp.org.kernagic'
p2
(dp3
S'lstem'
p4
I0
sS'rstem'
p5
I0
ssS'com.typemytype.robofont.layerData'
p6
(dp7
sS'com.fontlab.hintData'
p8
(dp9
S'vhints'
p10
((dp11
S'position'
p12
I193
sS'width'
p13
I122
s(dp14
g12
I910
sg13
I122
stp15
sS'hhints'
p16
((dp17
g12
I982
sg13
I92
stp18
ssS'org.robofab.postScriptHintData'
p19
(dp20
s."
HStem: 982 92
VStem: 193 122 910 122
AnchorPoint: "mid" 268 1280 basechar 0
AnchorPoint: "top" 663 1393 basechar 0
LayerCount: 2
Fore
SplineSet
169 0 m 1
 169 1540 l 1
 347 1560 l 1
 347 1146 l 1
 341 881 l 1
 415 1048 548 1106 700 1106 c 0
 933 1106 1060 946 1060 670 c 2
 1060 0 l 1
 879 0 l 1
 879 662 l 2
 879 870 820 972 664 972 c 0
 421 972 346 785 346 598 c 2
 346 0 l 1
 169 0 l 1
EndSplineSet
EndChar

StartChar: hungarumlaut
Encoding: 733 733 238
Width: 807
VWidth: 0
Flags: HW
PickledData: "(dp1
S'org.robofab.postScriptHintData'
p2
(dp3
sS'com.typemytype.robofont.layerData'
p4
(dp5
s."
AnchorPoint: "top" 341 1067 mark 0
LayerCount: 2
Fore
SplineSet
431 1248 m 1
 583 1599 l 1
 764 1599 l 1
 537 1248 l 1
 431 1248 l 1
156 1248 m 1
 290 1599 l 1
 455 1599 l 1
 264 1248 l 1
 156 1248 l 1
EndSplineSet
EndChar

StartChar: hyphen
Encoding: 45 45 239
Width: 860
VWidth: 0
Flags: HW
PickledData: "(dp1
S'org.pippin.gimp.org.kernagic'
p2
(dp3
S'lstem'
p4
I0
sS'rstem'
p5
I0
ssS'com.typemytype.robofont.layerData'
p6
(dp7
sS'org.robofab.postScriptHintData'
p8
(dp9
s."
AnchorPoint: "mid" 407 606 mark 0
LayerCount: 2
Fore
SplineSet
171 525 m 1
 171 664 l 1
 679 664 l 1
 679 525 l 1
 171 525 l 1
EndSplineSet
EndChar

StartChar: i
Encoding: 105 105 240
Width: 590
VWidth: 0
Flags: HW
PickledData: "(dp1
S'org.robofab.postScriptHintData'
p2
(dp3
sS'com.typemytype.robofont.layerData'
p4
(dp5
s."
AnchorPoint: "ogonek" 306 0 basechar 0
AnchorPoint: "top" 314 1082 basechar 0
LayerCount: 2
Fore
SplineSet
219 0 m 1
 219 1082 l 1
 397 1082 l 1
 397 0 l 1
 219 0 l 1
EndSplineSet
Refer: 191 729 N 1 0 0 1 87 0 2
Substitution2: "'locl' Localized Forms in Latin lookup 10 subtable" idotaccent
Substitution2: "'locl' Localized Forms in Latin lookup 9 subtable" idotaccent
Substitution2: "'locl' Localized Forms in Latin lookup 5 subtable" idotaccent
Substitution2: "'locl' Localized Forms in Latin lookup 4 subtable" idotaccent
Substitution2: "'locl' Localized Forms in Latin lookup 2 subtable" idotaccent
EndChar

StartChar: infinity
Encoding: 8734 8734 251
Width: 1662
VWidth: 0
Flags: HW
PickledData: "(dp1
S'org.pippin.gimp.org.kernagic'
p2
(dp3
S'lstem'
p4
I0
sS'rstem'
p5
I0
ssS'com.typemytype.robofont.layerData'
p6
(dp7
S'b'
(dp8
S'name'
p9
S'infinity'
p10
sS'lib'
p11
(dp12
sS'unicodes'
p13
(tsS'width'
p14
I1647
sS'contours'
p15
(tsS'components'
p16
(tsS'anchors'
p17
(tsssS'org.robofab.postScriptHintData'
p18
(dp19
s."
LayerCount: 2
Fore
SplineSet
1236 380 m 0
 1386 380 1457 502 1457 659 c 0
 1457 780 1364 883 1232 883 c 0
 1101 883 994 765 907 633 c 1
 1026 467 1116 380 1236 380 c 0
425 380 m 0
 551 380 662 493 754 630 c 1
 663 777 555 883 418 883 c 0
 277 883 189 769 189 633 c 0
 189 505 284 380 425 380 c 0
423 249 m 0
 202 249 73 434 73 654 c 0
 73 854 226 1011 419 1011 c 0
 585 1011 709 903 830 737 c 1
 944 898 1068 1011 1236 1011 c 0
 1458 1011 1582 854 1582 636 c 0
 1582 407 1430 249 1234 249 c 0
 1087 249 965 338 831 521 c 1
 712 361 586 249 423 249 c 0
EndSplineSet
EndChar

StartChar: integral
Encoding: 8747 8747 252
Width: 962
VWidth: 0
Flags: HW
PickledData: "(dp1
S'org.pippin.gimp.org.kernagic'
p2
(dp3
S'lstem'
p4
I0
sS'rstem'
p5
I0
ssS'com.typemytype.robofont.layerData'
p6
(dp7
S'b'
(dp8
S'name'
p9
S'integral'
p10
sS'lib'
p11
(dp12
sS'unicodes'
p13
(tsS'width'
p14
I994
sS'contours'
p15
(tsS'components'
p16
(tsS'anchors'
p17
(tsssS'org.robofab.postScriptHintData'
p18
(dp19
s."
LayerCount: 2
Fore
SplineSet
367 -419 m 0
 333 -419 293 -415 250 -405 c 1
 250 -296 l 1
 286 -306 319 -310 346 -310 c 0
 477 -310 502 -207 502 -40 c 2
 502 1155 l 2
 502 1400 567 1526 742 1526 c 0
 777 1526 818 1521 865 1510 c 1
 865 1406 l 1
 830 1417 800 1422 773 1422 c 0
 657 1422 632 1326 632 1163 c 2
 632 -32 l 2
 632 -282 553 -419 367 -419 c 0
EndSplineSet
EndChar

StartChar: k
Encoding: 107 107 257
Width: 1096
VWidth: 0
Flags: HW
PickledData: "(dp1
S'org.pippin.gimp.org.kernagic'
p2
(dp3
S'lstem'
p4
I0
sS'rstem'
p5
I671
ssS'com.typemytype.robofont.layerData'
p6
(dp7
sS'org.robofab.postScriptHintData'
p8
(dp9
s."
AnchorPoint: "bot" 596 0 basechar 0
LayerCount: 2
Fore
SplineSet
168 0 m 1
 168 1540 l 1
 346 1560 l 1
 346 762 l 1
 340 549 l 1
 840 1082 l 1
 1042 1082 l 1
 1042 1060 l 1
 594 590 l 1
 1073 24 l 1
 1073 0 l 1
 881 0 l 1
 468 505 l 1
 346 400 l 1
 346 0 l 1
 168 0 l 1
EndSplineSet
EndChar

StartChar: kgreenlandic
Encoding: 312 312 259
Width: 1088
VWidth: 0
Flags: HW
PickledData: "(dp1
S'org.robofab.postScriptHintData'
p2
(dp3
s."
LayerCount: 2
Fore
SplineSet
153 0 m 1
 153 1082 l 1
 324 1082 l 1
 324 762 l 1
 318 542 l 1
 822 1082 l 1
 1019 1082 l 1
 1019 1059 l 1
 570 589 l 1
 1051 22 l 1
 1051 0 l 1
 863 0 l 1
 449 502 l 1
 324 394 l 1
 324 0 l 1
 153 0 l 1
EndSplineSet
EndChar

StartChar: l
Encoding: 108 108 260
Width: 626
VWidth: 0
Flags: HW
PickledData: "(dp1
S'org.pippin.gimp.org.kernagic'
p2
(dp3
S'lstem'
p4
I0
sS'rstem'
p5
I238
ssS'com.typemytype.robofont.layerData'
p6
(dp7
sS'com.fontlab.hintData'
p8
(dp9
S'vhints'
p10
((dp11
S'position'
p12
I193
sS'width'
p13
I122
stp14
sS'hhints'
p15
((dp16
g12
I-11
sg13
I87
stp17
ssS'org.robofab.postScriptHintData'
p18
(dp19
s."
HStem: -11 87
VStem: 193 122
AnchorPoint: "mid" 298 808 basechar 0
AnchorPoint: "top" 352 1500 basechar 0
LayerCount: 2
Fore
SplineSet
548 -8 m 1
 485 -3 l 1
 284 14 179 49 179 544 c 2
 179 1540 l 1
 356 1560 l 1
 356 546 l 2
 356 155 386 152 509 131 c 2
 562 122 l 1
 548 -8 l 1
EndSplineSet
EndChar

StartChar: less
Encoding: 60 60 265
Width: 1111
VWidth: 0
Flags: HW
PickledData: "(dp1
S'org.pippin.gimp.org.kernagic'
p2
(dp3
S'lstem'
p4
I0
sS'rstem'
p5
I0
ssS'com.typemytype.robofont.layerData'
p6
(dp7
S'b'
(dp8
S'name'
p9
S'less'
p10
sS'lib'
p11
(dp12
sS'unicodes'
p13
(tsS'width'
p14
I1107
sS'contours'
p15
(tsS'components'
p16
(tsS'anchors'
p17
(tsssS'org.robofab.postScriptHintData'
p18
(dp19
s."
LayerCount: 2
Fore
SplineSet
1011 139 m 1
 79 595 l 1
 79 687 l 1
 1011 1177 l 1
 1011 1027 l 1
 274 646 l 1
 1011 291 l 1
 1011 139 l 1
EndSplineSet
EndChar

StartChar: lessequal
Encoding: 8804 8804 266
Width: 1194
VWidth: 0
Flags: HW
PickledData: "(dp1
S'org.robofab.postScriptHintData'
p2
(dp3
sS'com.typemytype.robofont.layerData'
p4
(dp5
s."
LayerCount: 2
Fore
SplineSet
127 7 m 1
 127 135 l 1
 1062 134 l 1
 1062 7 l 1
 127 7 l 1
1034 243 m 1
 147 720 l 1
 147 804 l 1
 1031 1308 l 1
 1031 1163 l 1
 329 762 l 1
 1034 386 l 1
 1034 243 l 1
EndSplineSet
EndChar

StartChar: logicalnot
Encoding: 172 172 267
Width: 1243
VWidth: 0
Flags: HW
PickledData: "(dp1
S'org.pippin.gimp.org.kernagic'
p2
(dp3
S'lstem'
p4
I0
sS'rstem'
p5
I0
ssS'com.typemytype.robofont.layerData'
p6
(dp7
sS'org.robofab.postScriptHintData'
p8
(dp9
s."
LayerCount: 2
Fore
SplineSet
937 253 m 1
 937 673 l 1
 104 673 l 1
 104 808 l 1
 1064 808 l 1
 1064 253 l 1
 937 253 l 1
EndSplineSet
EndChar

StartChar: lozenge
Encoding: 9674 9674 268
Width: 1170
VWidth: 0
Flags: HW
PickledData: "(dp1
S'org.pippin.gimp.org.kernagic'
p2
(dp3
S'lstem'
p4
I0
sS'rstem'
p5
I0
ssS'com.typemytype.robofont.layerData'
p6
(dp7
S'b'
(dp8
S'name'
p9
S'lozenge'
p10
sS'lib'
p11
(dp12
sS'unicodes'
p13
(tsS'width'
p14
I1164
sS'contours'
p15
(tsS'components'
p16
(tsS'anchors'
p17
(tsssS'org.robofab.postScriptHintData'
p18
(dp19
s."
LayerCount: 2
Fore
SplineSet
584 131 m 1
 603 165 886 731 903 765 c 1
 886 798 609 1362 592 1395 c 1
 573 1362 286 800 268 767 c 1
 285 733 567 164 584 131 c 1
530 -47 m 1
 119 765 l 1
 537 1580 l 1
 641 1580 l 1
 1053 767 l 1
 633 -47 l 1
 530 -47 l 1
EndSplineSet
EndChar

StartChar: m
Encoding: 109 109 270
Width: 1835
VWidth: 0
Flags: HW
PickledData: "(dp1
S'org.pippin.gimp.org.kernagic'
p2
(dp3
S'lstem'
p4
I0
sS'rstem'
p5
I0
ssS'com.typemytype.robofont.layerData'
p6
(dp7
sS'com.fontlab.hintData'
p8
(dp9
S'vhints'
p10
((dp11
S'position'
p12
I193
sS'width'
p13
I122
s(dp14
g12
I193
sg13
I98
s(dp15
g12
I845
sg13
I122
s(dp16
g12
I1483
sg13
I122
stp17
sS'hhints'
p18
((dp19
g12
I982
sg13
I92
stp20
ssS'org.robofab.postScriptHintData'
p21
(dp22
s."
HStem: 982 92
VStem: 193 122 193 98 845 122 1483 122
AnchorPoint: "top" 958 1082 basechar 0
LayerCount: 2
Fore
SplineSet
165 0 m 1
 165 1082 l 1
 314 1082 l 1
 333 871 l 1
 400 1035 522 1106 664 1106 c 0
 830 1106 939 1009 980 851 c 1
 1050 1026 1180 1106 1336 1106 c 0
 1558 1106 1680 963 1680 696 c 2
 1680 0 l 1
 1502 0 l 1
 1502 647 l 2
 1502 806 1474 972 1302 972 c 0
 1163 972 1012 836 1012 599 c 2
 1012 0 l 1
 834 0 l 1
 834 614 l 2
 834 862 776 972 629 972 c 0
 462 972 367 829 344 639 c 1
 344 0 l 1
 165 0 l 1
EndSplineSet
EndChar

StartChar: macron
Encoding: 175 175 271
Width: 1148
VWidth: 0
Flags: HW
PickledData: "(dp1
S'org.robofab.postScriptHintData'
p2
(dp3
sS'com.typemytype.robofont.layerData'
p4
(dp5
s."
AnchorPoint: "mid" 556 1375 mark 0
AnchorPoint: "top" 573 1067 mark 0
LayerCount: 2
Fore
SplineSet
269 1329 m 1
 269 1427 l 1
 848 1427 l 1
 848 1329 l 1
 269 1329 l 1
EndSplineSet
EndChar

StartChar: minus
Encoding: 8722 8722 273
Width: 1166
VWidth: 0
Flags: HW
PickledData: "(dp1
S'org.pippin.gimp.org.kernagic'
p2
(dp3
S'lstem'
p4
I0
sS'rstem'
p5
I0
ssS'com.typemytype.robofont.layerData'
p6
(dp7
sS'org.robofab.postScriptHintData'
p8
(dp9
s."
LayerCount: 2
Fore
SplineSet
103 525 m 1
 103 667 l 1
 1067 667 l 1
 1067 525 l 1
 103 525 l 1
EndSplineSet
EndChar

StartChar: multiply
Encoding: 215 215 274
Width: 981
VWidth: 0
Flags: HW
PickledData: "(dp1
S'org.pippin.gimp.org.kernagic'
p2
(dp3
S'lstem'
p4
I0
sS'rstem'
p5
I0
ssS'com.typemytype.robofont.layerData'
p6
(dp7
sS'org.robofab.postScriptHintData'
p8
(dp9
s."
LayerCount: 2
Fore
SplineSet
195 238 m 1
 101 335 l 1
 393 650 l 1
 110 958 l 1
 204 1057 l 1
 487 750 l 1
 767 1053 l 1
 865 955 l 1
 581 650 l 1
 606 624 868 338 868 338 c 1
 777 238 l 1
 487 550 l 1
 195 238 l 1
EndSplineSet
EndChar

StartChar: n
Encoding: 110 110 275
Width: 1204
VWidth: 0
Flags: HW
PickledData: "(dp1
S'org.pippin.gimp.org.kernagic'
p2
(dp3
S'lstem'
p4
I0
sS'rstem'
p5
I0
ssS'com.typemytype.robofont.layerData'
p6
(dp7
sS'com.fontlab.hintData'
p8
(dp9
S'vhints'
p10
((dp11
S'position'
p12
I193
sS'width'
p13
I122
s(dp14
g12
I903
sg13
I122
stp15
sS'hhints'
p16
((dp17
g12
I0
sg13
I22
s(dp18
g12
I982
sg13
I92
s(dp19
g12
I1034
sg13
I21
stp20
ssS'org.robofab.postScriptHintData'
p21
(dp22
s."
HStem: 0 22 982 92 1034 21
VStem: 193 122 903 122
AnchorPoint: "bot" 605 0 basechar 0
AnchorPoint: "top" 694 1082 basechar 0
LayerCount: 2
Fore
SplineSet
165 0 m 1
 165 1082 l 1
 313 1082 l 1
 332 872 l 1
 398 1031 520 1106 697 1106 c 0
 939 1106 1050 945 1050 652 c 2
 1050 0 l 1
 872 0 l 1
 872 667 l 2
 872 850 823 972 660 972 c 0
 435 972 344 808 344 614 c 2
 344 0 l 1
 165 0 l 1
EndSplineSet
EndChar

StartChar: nine
Encoding: 57 57 280
Width: 1258
VWidth: 0
Flags: HW
PickledData: "(dp1
S'org.pippin.gimp.org.kernagic'
p2
(dp3
S'lstem'
p4
I0
sS'rstem'
p5
I0
ssS'com.typemytype.robofont.layerData'
p6
(dp7
sS'org.robofab.postScriptHintData'
p8
(dp9
s."
LayerCount: 2
Fore
SplineSet
649 702 m 0
 780 702 967 779 967 1018 c 0
 967 1188 858 1336 662 1336 c 0
 465 1336 351 1188 351 1017 c 0
 351 839 452 702 649 702 c 0
352 0 m 1
 352 21 l 1
 515 226 682 427 839 638 c 1
 769 592 683 566 601 566 c 0
 365 566 174 745 174 1016 c 0
 174 1275 369 1476 661 1476 c 0
 967 1476 1141 1253 1141 1007 c 0
 1141 792 1049 646 910 468 c 2
 547 0 l 1
 352 0 l 1
EndSplineSet
EndChar

StartChar: notequal
Encoding: 8800 8800 281
Width: 1092
VWidth: 0
Flags: HW
PickledData: "(dp1
S'org.pippin.gimp.org.kernagic'
p2
(dp3
S'lstem'
p4
I0
sS'rstem'
p5
I0
ssS'com.typemytype.robofont.layerData'
p6
(dp7
S'b'
(dp8
S'name'
p9
S'notequal'
p10
sS'lib'
p11
(dp12
sS'unicodes'
p13
(tsS'width'
p14
I1079
sS'contours'
p15
(tsS'components'
p16
(tsS'anchors'
p17
(tsssS'org.robofab.postScriptHintData'
p18
(dp19
s."
LayerCount: 2
Fore
SplineSet
212 65 m 1
 330 351 l 1
 76 351 l 1
 69 474 l 1
 388 474 l 1
 542 784 l 1
 76 784 l 1
 68 908 l 1
 597 908 l 1
 736 1201 l 1
 838 1187 l 1
 722 908 l 1
 993 908 l 1
 1002 783 l 1
 669 783 l 1
 510 473 l 1
 995 473 l 1
 1002 351 l 1
 457 351 l 1
 313 47 l 1
 212 65 l 1
EndSplineSet
EndChar

StartChar: numbersign
Encoding: 35 35 283
Width: 1160
VWidth: 0
Flags: HW
PickledData: "(dp1
S'org.pippin.gimp.org.kernagic'
p2
(dp3
S'lstem'
p4
I0
sS'rstem'
p5
I0
ssS'com.typemytype.robofont.layerData'
p6
(dp7
sS'org.robofab.postScriptHintData'
p8
(dp9
s."
LayerCount: 2
Fore
SplineSet
390 537 m 1
 687 537 l 1
 777 987 l 1
 481 987 l 1
 390 537 l 1
171 -17 m 1
 263 442 l 1
 69 442 l 1
 82 537 l 1
 282 537 l 1
 372 987 l 1
 177 987 l 1
 190 1081 l 1
 390 1081 l 1
 490 1546 l 1
 599 1546 l 1
 501 1081 l 1
 797 1081 l 1
 896 1546 l 1
 1002 1546 l 1
 903 1081 l 1
 1108 1081 l 1
 1092 987 l 1
 884 987 l 1
 794 537 l 1
 1013 537 l 1
 998 442 l 1
 775 442 l 1
 683 -17 l 1
 576 -17 l 1
 667 442 l 1
 371 442 l 1
 279 -17 l 1
 171 -17 l 1
EndSplineSet
EndChar

StartChar: o
Encoding: 111 111 284
Width: 1214
VWidth: 0
Flags: HW
PickledData: "(dp1
S'org.pippin.gimp.org.kernagic'
p2
(dp3
S'lstem'
p4
I0
sS'rstem'
p5
I0
ssS'com.typemytype.robofont.layerData'
p6
(dp7
sS'com.typemytype.robofont.guides'
p8
((dp9
S'y'
I1093
sS'x'
I582
sS'magnetic'
p10
I5
sS'angle'
p11
F90
sS'isGlobal'
p12
I00
stp13
sS'com.fontlab.hintData'
p14
(dp15
S'vhints'
p16
((dp17
S'position'
p18
I128
sS'width'
p19
I120
s(dp20
g18
I982
sg19
I120
stp21
sS'hhints'
p22
((dp23
g18
I-19
sg19
I92
s(dp24
g18
I982
sg19
I92
stp25
ssS'org.robofab.postScriptHintData'
p26
(dp27
s."
HStem: -19 92 982 92
VStem: 128 120 982 120
AnchorPoint: "ogonek" 715 1 basechar 0
AnchorPoint: "top" 608 1082 basechar 0
LayerCount: 2
Fore
SplineSet
608 -20 m 0
 294 -20 118 206 118 542 c 0
 118 885 291 1106 608 1106 c 0
 924 1106 1096 885 1096 542 c 0
 1096 206 921 -20 608 -20 c 0
608 112 m 0
 820 112 913 293 913 541 c 0
 913 795 819 973 608 973 c 0
 396 973 302 795 302 541 c 0
 302 293 395 112 608 112 c 0
EndSplineSet
Substitution2: "Single Substitution lookup 14 subtable" ordmasculine
EndChar

StartChar: oe
Encoding: 339 339 289
Width: 1912
VWidth: 0
Flags: HW
PickledData: "(dp1
S'org.pippin.gimp.org.kernagic'
p2
(dp3
S'lstem'
p4
I0
sS'rstem'
p5
I0
ssS'com.typemytype.robofont.layerData'
p6
(dp7
S'b'
(dp8
S'name'
p9
S'oe'
p10
sS'lib'
p11
(dp12
sS'unicodes'
p13
(tsS'width'
p14
F1915.3599999999999
sS'contours'
p15
(tsS'components'
p16
(tsS'anchors'
p17
(tsssS'org.robofab.postScriptHintData'
p18
(dp19
s."
LayerCount: 2
Fore
SplineSet
1083 625 m 1
 1666 625 l 1
 1662 846 1579 973 1404 973 c 0
 1229 973 1102 839 1083 625 c 1
594 112 m 0
 811 112 903 294 903 540 c 0
 903 791 811 972 594 972 c 0
 378 972 284 791 284 540 c 0
 284 294 378 112 594 112 c 0
594 -20 m 0
 283 -20 108 206 108 541 c 0
 108 883 279 1104 594 1104 c 0
 783 1104 939 1003 999 847 c 1
 1066 1005 1233 1104 1396 1104 c 0
 1657 1104 1813 920 1813 599 c 0
 1813 567 1805 510 1805 510 c 1
 1080 510 l 1
 1083 222 1249 113 1440 113 c 0
 1564 113 1644 152 1731 203 c 1
 1743 203 l 1
 1784 86 l 1
 1698 26 1573 -19 1421 -20 c 0
 1243 -20 1061 87 997 247 c 1
 945 91 780 -20 594 -20 c 0
EndSplineSet
EndChar

StartChar: ogonek
Encoding: 731 731 290
Width: 761
VWidth: 0
Flags: HW
PickledData: "(dp1
S'org.pippin.gimp.org.kernagic'
p2
(dp3
S'lstem'
p4
I0
sS'rstem'
p5
I0
ssS'com.typemytype.robofont.layerData'
p6
(dp7
sS'org.robofab.postScriptHintData'
p8
(dp9
s."
AnchorPoint: "ogonek" 488 0 mark 0
LayerCount: 2
Fore
SplineSet
437 -422 m 0
 315 -422 248 -364 248 -269 c 0
 248 -154 349 -39 451 4 c 1
 534 4 l 1
 472 -42 390 -152 390 -228 c 0
 390 -285 427 -309 473 -309 c 0
 515 -309 563 -292 582 -284 c 1
 585 -391 l 1
 550 -407 488 -422 437 -422 c 0
EndSplineSet
EndChar

StartChar: one
Encoding: 49 49 294
Width: 1258
VWidth: 0
Flags: HW
PickledData: "(dp1
S'org.pippin.gimp.org.kernagic'
p2
(dp3
S'lstem'
p4
I0
sS'rstem'
p5
I0
ssS'com.typemytype.robofont.layerData'
p6
(dp7
sS'org.robofab.postScriptHintData'
p8
(dp9
s."
LayerCount: 2
Fore
SplineSet
200 0 m 1
 200 132 l 1
 588 132 l 1
 588 1290 l 1
 477 1230 288 1168 212 1158 c 1
 212 1300 l 1
 299 1319 526 1400 604 1456 c 1
 771 1456 l 1
 771 132 l 1
 1117 132 l 1
 1117 0 l 1
 200 0 l 1
EndSplineSet
EndChar

StartChar: onehalf
Encoding: 189 189 295
Width: 1768
VWidth: 0
Flags: HW
PickledData: "(dp1
S'org.pippin.gimp.org.kernagic'
p2
(dp3
S'lstem'
p4
I0
sS'rstem'
p5
I0
ssS'com.typemytype.robofont.layerData'
p6
(dp7
sS'org.robofab.postScriptHintData'
p8
(dp9
s."
LayerCount: 2
Fore
SplineSet
376 0 m 1
 1290 1481 l 1
 1426 1481 l 1
 513 0 l 1
 376 0 l 1
136 598 m 1
 136 710 l 1
 286 710 l 1
 286 1336 l 1
 249 1313 154 1273 127 1262 c 1
 127 1377 l 1
 160 1391 274 1443 315 1480 c 1
 427 1480 l 1
 427 710 l 1
 567 710 l 1
 567 598 l 1
 136 598 l 1
1150 0 m 1
 1147 111 l 1
 1152 116 1395 362 1397 365 c 0
 1506 477 1538 537 1538 607 c 0
 1538 702 1469 749 1387 749 c 0
 1308 749 1238 712 1181 634 c 1
 1106 714 l 1
 1160 809 1270 871 1390 871 c 0
 1549 871 1675 777 1675 613 c 0
 1675 479 1614 402 1489 284 c 0
 1486 282 1313 120 1309 116 c 1
 1666 116 l 1
 1661 0 l 1
 1150 0 l 1
EndSplineSet
Ligature2: "'frac' Diagonal Fractions lookup 11 subtable" one slash two
EndChar

StartChar: onequarter
Encoding: 188 188 296
Width: 1735
VWidth: 0
Flags: HW
PickledData: "(dp1
S'org.pippin.gimp.org.kernagic'
p2
(dp3
S'lstem'
p4
I0
sS'rstem'
p5
I0
ssS'com.typemytype.robofont.layerData'
p6
(dp7
sS'org.robofab.postScriptHintData'
p8
(dp9
s."
LayerCount: 2
Fore
SplineSet
1133 299 m 1
 1392 299 l 1
 1392 688 l 1
 1133 299 l 1
377 0 m 1
 1292 1481 l 1
 1429 1481 l 1
 515 0 l 1
 377 0 l 1
1393 0 m 1
 1393 191 l 1
 992 191 l 1
 992 287 l 1
 1383 858 l 1
 1523 858 l 1
 1523 299 l 1
 1636 299 l 1
 1642 191 l 1
 1522 191 l 1
 1522 0 l 1
 1393 0 l 1
132 598 m 1
 132 712 l 1
 282 712 l 1
 282 1333 l 1
 245 1310 150 1271 122 1259 c 1
 122 1377 l 1
 155 1391 269 1443 309 1480 c 1
 422 1480 l 1
 422 712 l 1
 561 712 l 1
 561 598 l 1
 132 598 l 1
EndSplineSet
Ligature2: "'frac' Diagonal Fractions lookup 11 subtable" one slash four
EndChar

StartChar: ordfeminine
Encoding: 170 170 297
Width: 1120
VWidth: 0
Flags: HW
PickledData: "(dp1
S'org.robofab.postScriptHintData'
p2
(dp3
sS'com.typemytype.robofont.layerData'
p4
(dp5
s."
LayerCount: 2
Fore
SplineSet
490 701 m 0
 600 701 690 751 750 827 c 1
 750 1024 l 1
 568 1025 l 1
 374 1025 314 969 314 860 c 0
 314 742 391 701 490 701 c 0
467 592 m 0
 289 592 167 681 167 861 c 0
 167 1027 281 1124 541 1124 c 1
 750 1122 l 1
 750 1229 l 2
 750 1379 681 1443 544 1443 c 0
 455 1443 334 1416 246 1357 c 1
 201 1473 l 1
 294 1532 424 1560 548 1560 c 0
 756 1560 902 1468 902 1216 c 2
 902 609 l 1
 775 609 l 1
 763 725 l 1
 687 634 594 592 467 592 c 0
EndSplineSet
EndChar

StartChar: ordmasculine
Encoding: 186 186 298
Width: 961
VWidth: 0
Flags: HW
PickledData: "(dp1
S'org.pippin.gimp.org.kernagic'
p2
(dp3
S'lstem'
p4
I0
sS'rstem'
p5
I0
ssS'com.typemytype.robofont.layerData'
p6
(dp7
S'b'
(dp8
S'name'
p9
S'ordmasculine'
p10
sS'lib'
p11
(dp12
sS'unicodes'
p13
(tsS'width'
p14
I965
sS'contours'
p15
(tsS'components'
p16
(tsS'anchors'
p17
(tsssS'org.robofab.postScriptHintData'
p18
(dp19
s."
LayerCount: 2
Fore
SplineSet
478 717 m 0
 258 717 139 880 139 1099 c 0
 139 1322 258 1487 478 1487 c 0
 703 1487 818 1325 818 1099 c 0
 818 883 685 717 478 717 c 0
478 829 m 0
 617 829 682 928 682 1096 c 0
 682 1269 612 1374 478 1374 c 0
 348 1374 281 1271 281 1099 c 0
 281 929 347 829 478 829 c 0
EndSplineSet
EndChar

StartChar: oslash
Encoding: 248 248 299
Width: 1205
VWidth: 0
Flags: HW
PickledData: "(dp1
S'org.pippin.gimp.org.kernagic'
p2
(dp3
S'lstem'
p4
I0
sS'rstem'
p5
I0
ssS'com.typemytype.robofont.layerData'
p6
(dp7
sS'org.robofab.postScriptHintData'
p8
(dp9
s."
LayerCount: 2
Fore
SplineSet
754 936 m 1
 379 228 l 1
 326 305 302 414 302 541 c 0
 302 795 396 973 608 973 c 0
 665 973 714 960 754 936 c 1
816 883 m 1
 882 807 913 686 913 541 c 0
 913 293 820 112 608 112 c 0
 537 112 480 132 435 168 c 1
 816 883 l 1
608 -20 m 0
 921 -20 1096 206 1096 542 c 0
 1096 762 1026 931 892 1025 c 1
 986 1201 l 1
 914 1239 l 1
 822 1064 l 1
 761 1091 689 1106 608 1106 c 0
 291 1106 118 885 118 542 c 0
 118 340 182 177 301 80 c 1
 193 -124 l 1
 258 -163 l 1
 365 37 l 1
 433 0 514 -20 608 -20 c 0
EndSplineSet
EndChar

StartChar: p
Encoding: 112 112 302
Width: 1222
VWidth: 0
Flags: HW
PickledData: "(dp1
S'org.pippin.gimp.org.kernagic'
p2
(dp3
S'lstem'
p4
I0
sS'rstem'
p5
I0
ssS'com.typemytype.robofont.layerData'
p6
(dp7
sS'com.fontlab.hintData'
p8
(dp9
S'vhints'
p10
((dp11
S'position'
p12
I193
sS'width'
p13
I122
s(dp14
g12
I193
sg13
I97
s(dp15
g12
I1009
sg13
I122
stp16
sS'hhints'
p17
((dp18
g12
I-19
sg13
I92
s(dp19
g12
I982
sg13
I92
stp20
ssS'org.robofab.postScriptHintData'
p21
(dp22
s."
HStem: -19 92 982 92
VStem: 193 122 193 97 1009 122
AnchorPoint: "top" 669 1082 basechar 0
LayerCount: 2
Fore
SplineSet
631 112 m 0
 831 112 921 274 921 542 c 0
 921 795 853 972 649 972 c 0
 433 972 344 810 342 574 c 1
 342 253 l 1
 408 159 510 112 631 112 c 0
171 -459 m 1
 171 1082 l 1
 320 1082 l 1
 336 858 l 1
 389 1021 510 1106 674 1106 c 0
 967 1106 1104 878 1104 540 c 0
 1104 210 930 -20 646 -20 c 0
 513 -20 410 22 343 93 c 1
 348 -68 l 1
 348 -459 l 1
 171 -459 l 1
EndSplineSet
EndChar

StartChar: paragraph
Encoding: 182 182 303
Width: 1145
VWidth: 0
Flags: HW
PickledData: "(dp1
S'org.pippin.gimp.org.kernagic'
p2
(dp3
S'lstem'
p4
I0
sS'rstem'
p5
I0
ssS'com.typemytype.robofont.layerData'
p6
(dp7
sS'org.robofab.postScriptHintData'
p8
(dp9
s."
LayerCount: 2
Fore
SplineSet
518 -205 m 1
 518 766 l 1
 235 766 132 936 132 1113 c 0
 132 1280 226 1456 555 1456 c 2
 912 1456 l 1
 912 -205 l 1
 786 -205 l 1
 786 1333 l 1
 645 1333 l 1
 645 -205 l 1
 518 -205 l 1
EndSplineSet
EndChar

StartChar: parenleft
Encoding: 40 40 304
Width: 773
VWidth: 0
Flags: HW
PickledData: "(dp1
S'org.pippin.gimp.org.kernagic'
p2
(dp3
S'lstem'
p4
I0
sS'rstem'
p5
I0
ssS'com.typemytype.robofont.layerData'
p6
(dp7
S'b'
(dp8
S'name'
p9
S'parenright'
p10
sS'lib'
p11
(dp12
sS'unicodes'
p13
(tsS'width'
p14
I766
sS'contours'
p15
(tsS'components'
p16
(tsS'anchors'
p17
(tsssS'org.robofab.postScriptHintData'
p18
(dp19
s."
LayerCount: 2
Fore
SplineSet
616 -234 m 257
 471 -234 l 257
 305 32 213 353 213 678 c 256
 213 1004 305 1324 471 1591 c 257
 616 1591 l 257
 616 1556 l 257
 443 1272 369 985 369 678 c 256
 369 371 443 84 616 -201 c 257
 616 -234 l 257
EndSplineSet
EndChar

StartChar: parenright
Encoding: 41 41 305
Width: 773
VWidth: 0
Flags: HW
PickledData: "(dp1
S'org.pippin.gimp.org.kernagic'
p2
(dp3
S'lstem'
p4
I0
sS'rstem'
p5
I0
ssS'com.typemytype.robofont.layerData'
p6
(dp7
S'b'
(dp8
S'name'
p9
S'parenright'
p10
sS'lib'
p11
(dp12
sS'unicodes'
p13
(tsS'width'
p14
I766
sS'contours'
p15
(tsS'components'
p16
(tsS'anchors'
p17
(tsssS'org.robofab.postScriptHintData'
p18
(dp19
s."
LayerCount: 2
Fore
SplineSet
163 -234 m 1
 163 -201 l 1
 336 84 410 371 410 678 c 0
 410 985 336 1272 163 1556 c 1
 163 1591 l 1
 308 1591 l 1
 474 1324 566 1004 566 678 c 0
 566 353 474 32 308 -234 c 1
 163 -234 l 1
EndSplineSet
EndChar

StartChar: partialdiff
Encoding: 8706 8706 306
Width: 1183
VWidth: 0
Flags: HW
PickledData: "(dp1
S'org.robofab.postScriptHintData'
p2
(dp3
s."
LayerCount: 2
Fore
SplineSet
485 87 m 0
 738 87 853 539 871 830 c 1
 540 818 361 480 361 264 c 0
 361 161 402 87 485 87 c 0
471 -19 m 0
 263 -19 165 118 165 288 c 0
 165 562 420 920 876 922 c 1
 877 937 877 951 877 965 c 0
 876 1257 709 1434 489 1434 c 0
 422 1434 350 1417 277 1383 c 1
 238 1480 l 1
 338 1534 437 1560 530 1560 c 0
 817 1560 1046 1317 1046 908 c 0
 1046 382 814 -19 471 -19 c 0
EndSplineSet
EndChar

StartChar: percent
Encoding: 37 37 307
Width: 1630
VWidth: 0
Flags: HW
PickledData: "(dp1
S'org.pippin.gimp.org.kernagic'
p2
(dp3
S'lstem'
p4
I0
sS'rstem'
p5
I0
ssS'com.typemytype.robofont.layerData'
p6
(dp7
S'b'
(dp8
S'name'
p9
S'percent'
p10
sS'lib'
p11
(dp12
sS'unicodes'
p13
(tsS'width'
p14
I1563
sS'contours'
p15
(tsS'components'
p16
(tsS'anchors'
p17
(tsssS'org.robofab.postScriptHintData'
p18
(dp19
s."
LayerCount: 2
Fore
SplineSet
1165 -4 m 0
 938 -4 855 164 855 380 c 0
 855 598 942 764 1165 764 c 0
 1395 764 1478 601 1478 380 c 0
 1478 164 1392 -4 1165 -4 c 0
1167 98 m 0
 1320 98 1354 223 1354 381 c 0
 1354 546 1319 661 1167 661 c 0
 1014 661 980 540 980 381 c 0
 980 219 1014 98 1167 98 c 0
287 0 m 1
 1118 1463 l 1
 1249 1463 l 1
 427 0 l 1
 287 0 l 1
372 715 m 0
 144 715 69 883 69 1100 c 0
 69 1317 148 1482 372 1482 c 0
 602 1482 684 1320 684 1100 c 0
 684 883 599 715 372 715 c 0
374 817 m 0
 527 817 560 942 560 1100 c 0
 560 1264 526 1380 374 1380 c 0
 220 1380 186 1259 186 1100 c 0
 186 937 220 817 374 817 c 0
EndSplineSet
EndChar

StartChar: period
Encoding: 46 46 308
Width: 627
VWidth: 0
Flags: HW
PickledData: "(dp1
S'org.pippin.gimp.org.kernagic'
p2
(dp3
S'lstem'
p4
I0
sS'rstem'
p5
I0
ssS'com.typemytype.robofont.layerData'
p6
(dp7
S'b'
(dp8
S'name'
p9
S'period'
p10
sS'lib'
p11
(dp12
sS'unicodes'
p13
(tsS'width'
p14
I624
sS'contours'
p15
(tsS'components'
p16
(tsS'anchors'
p17
(tsssS'org.robofab.postScriptHintData'
p18
(dp19
s."
LayerCount: 2
Fore
SplineSet
317 -11 m 0
 241 -11 210 33 210 110 c 0
 210 185 241 228 317 228 c 0
 388 228 421 185 421 110 c 0
 421 33 388 -11 317 -11 c 0
EndSplineSet
EndChar

StartChar: periodcentered
Encoding: 183 183 309
Width: 639
VWidth: 0
Flags: HW
PickledData: "(dp1
S'org.pippin.gimp.org.kernagic'
p2
(dp3
S'lstem'
p4
I0
sS'rstem'
p5
I0
ssS'com.typemytype.robofont.layerData'
p6
(dp7
S'b'
(dp8
S'name'
p9
S'periodcentered'
p10
sS'lib'
p11
(dp12
sS'unicodes'
p13
(tsS'width'
p14
I653
sS'contours'
p15
(tsS'components'
p16
(tsS'anchors'
p17
(tsssS'org.robofab.postScriptHintData'
p18
(dp19
s."
LayerCount: 2
Fore
SplineSet
329 510 m 0
 261 510 214 556 214 624 c 0
 214 691 261 737 329 737 c 0
 396 737 443 691 443 624 c 0
 443 556 396 510 329 510 c 0
EndSplineSet
EndChar

StartChar: perthousand
Encoding: 8240 8240 310
Width: 2351
VWidth: 0
Flags: HW
PickledData: "(dp1
S'org.pippin.gimp.org.kernagic'
p2
(dp3
S'lstem'
p4
I0
sS'rstem'
p5
I0
ssS'com.typemytype.robofont.layerData'
p6
(dp7
S'b'
(dp8
S'name'
p9
S'perthousand'
p10
sS'lib'
p11
(dp12
sS'unicodes'
p13
(tsS'width'
p14
I2251
sS'contours'
p15
(tsS'components'
p16
(tsS'anchors'
p17
(tsssS'org.robofab.postScriptHintData'
p18
(dp19
s."
LayerCount: 2
Fore
SplineSet
1886 -4 m 0
 1658 -4 1576 164 1576 380 c 0
 1576 598 1662 764 1886 764 c 0
 2116 764 2198 601 2198 380 c 0
 2198 164 2113 -4 1886 -4 c 0
1888 98 m 0
 2041 98 2074 223 2074 381 c 0
 2074 546 2040 661 1888 661 c 0
 1734 661 1700 540 1700 381 c 0
 1700 219 1734 98 1888 98 c 0
EndSplineSet
Refer: 307 37 N 1 0 0 1 13 0 2
EndChar

StartChar: pi
Encoding: 960 960 311
Width: 1439
VWidth: 0
Flags: HW
PickledData: "(dp1
S'org.robofab.postScriptHintData'
p2
(dp3
sS'com.typemytype.robofont.layerData'
p4
(dp5
s."
LayerCount: 2
Fore
SplineSet
1139 -13 m 0
 962 -13 901 96 901 281 c 0
 901 443 943 676 975 910 c 1
 595 910 l 1
 567 332 l 2
 556 108 485 4 134 4 c 1
 134 113 l 1
 256 113 385 174 413 396 c 2
 479 910 l 1
 355 910 l 2
 273 910 232 853 220 772 c 1
 123 772 l 1
 123 992 198 1082 440 1082 c 2
 1346 1082 l 1
 1346 910 l 1
 1105 910 l 1
 1079 718 1067 547 1067 431 c 0
 1067 230 1112 139 1193 139 c 0
 1235 139 1290 163 1319 173 c 1
 1319 45 l 1
 1284 11 1217 -13 1139 -13 c 0
EndSplineSet
EndChar

StartChar: plus
Encoding: 43 43 312
Width: 1141
VWidth: 0
Flags: HW
PickledData: "(dp1
S'org.pippin.gimp.org.kernagic'
p2
(dp3
S'lstem'
p4
I0
sS'rstem'
p5
I0
ssS'com.typemytype.robofont.layerData'
p6
(dp7
S'b'
(dp8
S'name'
p9
S'plus'
p10
sS'lib'
p11
(dp12
sS'unicodes'
p13
(tsS'width'
p14
I1136
sS'contours'
p15
(tsS'components'
p16
(tsS'anchors'
p17
(tsssS'org.robofab.postScriptHintData'
p18
(dp19
s."
LayerCount: 2
Fore
SplineSet
477 227 m 1
 477 612 l 1
 119 612 l 1
 119 780 l 1
 478 780 l 1
 478 1159 l 1
 652 1159 l 1
 652 780 l 1
 1008 780 l 1
 1008 612 l 1
 652 612 l 1
 652 227 l 1
 477 227 l 1
EndSplineSet
EndChar

StartChar: plusminus
Encoding: 177 177 313
Width: 1137
VWidth: 0
Flags: HW
PickledData: "(dp1
S'org.pippin.gimp.org.kernagic'
p2
(dp3
S'lstem'
p4
I0
sS'rstem'
p5
I0
ssS'com.typemytype.robofont.layerData'
p6
(dp7
sS'org.robofab.postScriptHintData'
p8
(dp9
s."
LayerCount: 2
Fore
SplineSet
105 0 m 1
 105 124 l 1
 1036 124 l 1
 1036 0 l 1
 105 0 l 1
496 220 m 1
 496 613 l 1
 125 613 l 1
 125 739 l 1
 496 739 l 1
 496 1124 l 1
 628 1124 l 1
 628 739 l 1
 993 739 l 1
 993 613 l 1
 629 613 l 1
 629 220 l 1
 496 220 l 1
EndSplineSet
EndChar

StartChar: product
Encoding: 8719 8719 314
Width: 1534
VWidth: 0
Flags: HW
PickledData: "(dp1
S'org.pippin.gimp.org.kernagic'
p2
(dp3
S'lstem'
p4
I0
sS'rstem'
p5
I0
ssS'com.typemytype.robofont.layerData'
p6
(dp7
S'b'
(dp8
S'name'
p9
S'product'
p10
sS'lib'
p11
(dp12
sS'unicodes'
p13
(tsS'width'
p14
I1533
sS'contours'
p15
(tsS'components'
p16
(tsS'anchors'
p17
(tsssS'org.robofab.postScriptHintData'
p18
(dp19
s."
LayerCount: 2
Fore
SplineSet
200 0 m 1
 200 1498 l 1
 1339 1498 l 1
 1339 0 l 1
 1169 0 l 1
 1169 1350 l 1
 370 1350 l 1
 370 0 l 1
 200 0 l 1
EndSplineSet
EndChar

StartChar: q
Encoding: 113 113 315
Width: 1216
VWidth: 0
Flags: HW
PickledData: "(dp1
S'org.pippin.gimp.org.kernagic'
p2
(dp3
S'lstem'
p4
I0
sS'rstem'
p5
I0
ssS'com.typemytype.robofont.layerData'
p6
(dp7
sS'org.robofab.postScriptHintData'
p8
(dp9
s."
LayerCount: 2
Fore
SplineSet
603 112 m 0
 721 112 823 155 880 236 c 1
 880 832 l 1
 814 928 719 972 600 972 c 0
 400 972 302 810 302 545 c 0
 302 270 399 112 603 112 c 0
874 -459 m 1
 874 -26 l 1
 877 91 l 1
 796 8 682 -20 587 -20 c 0
 282 -20 118 208 118 545 c 0
 118 880 294 1106 590 1106 c 0
 732 1106 832 1043 894 960 c 1
 902 1082 l 1
 1052 1082 l 1
 1052 -459 l 1
 874 -459 l 1
EndSplineSet
EndChar

StartChar: question
Encoding: 63 63 316
Width: 922
VWidth: 0
Flags: HW
PickledData: "(dp1
S'org.pippin.gimp.org.kernagic'
p2
(dp3
S'lstem'
p4
I0
sS'rstem'
p5
I0
ssS'com.typemytype.robofont.layerData'
p6
(dp7
sS'org.robofab.postScriptHintData'
p8
(dp9
s."
LayerCount: 2
Fore
SplineSet
371 -14 m 0
 290 -14 252 43 252 104 c 0
 252 163 290 219 371 219 c 0
 451 219 487 163 487 104 c 0
 487 41 451 -14 371 -14 c 0
331 429 m 1
 350 739 592 913 592 1127 c 0
 592 1268 522 1338 397 1338 c 0
 294 1338 198 1281 153 1252 c 1
 116 1387 l 1
 192 1445 295 1485 418 1485 c 0
 602 1485 763 1384 763 1142 c 0
 763 838 520 787 413 428 c 1
 331 429 l 1
EndSplineSet
EndChar

StartChar: quotedbl
Encoding: 34 34 318
Width: 697
VWidth: 0
Flags: HW
PickledData: "(dp1
S'org.robofab.postScriptHintData'
p2
(dp3
sS'com.typemytype.robofont.layerData'
p4
(dp5
s."
LayerCount: 2
Fore
SplineSet
465 999 m 1
 404 1528 l 1
 591 1528 l 1
 553 999 l 1
 465 999 l 1
170 999 m 1
 108 1528 l 1
 294 1528 l 1
 256 999 l 1
 170 999 l 1
EndSplineSet
EndChar

StartChar: quotedblbase
Encoding: 8222 8222 319
Width: 758
VWidth: 0
Flags: HW
PickledData: "(dp1
S'org.robofab.postScriptHintData'
p2
(dp3
s."
LayerCount: 2
Fore
SplineSet
416 -311 m 1
 464 162 l 1
 639 162 l 1
 530 -311 l 1
 416 -311 l 1
109 -311 m 1
 161 162 l 1
 331 162 l 1
 226 -311 l 1
 109 -311 l 1
EndSplineSet
EndChar

StartChar: quotedblleft
Encoding: 8220 8220 320
Width: 904
VWidth: 0
Flags: HW
PickledData: "(dp1
S'org.robofab.postScriptHintData'
p2
(dp3
sS'com.typemytype.robofont.layerData'
p4
(dp5
s."
LayerCount: 2
Fore
SplineSet
511 1019 m 1
 620 1501 l 1
 747 1501 l 1
 700 1019 l 1
 511 1019 l 1
159 1019 m 1
 269 1501 l 1
 395 1501 l 1
 349 1019 l 1
 159 1019 l 1
EndSplineSet
EndChar

StartChar: quotedblright
Encoding: 8221 8221 321
Width: 904
VWidth: 0
Flags: HW
PickledData: "(dp1
S'org.robofab.postScriptHintData'
p2
(dp3
sS'com.typemytype.robofont.layerData'
p4
(dp5
s."
LayerCount: 2
Fore
SplineSet
511 1019 m 1
 557 1501 l 1
 747 1501 l 1
 637 1019 l 1
 511 1019 l 1
159 1019 m 1
 206 1501 l 1
 395 1501 l 1
 287 1019 l 1
 159 1019 l 1
EndSplineSet
EndChar

StartChar: quoteleft
Encoding: 8216 8216 322
Width: 525
VWidth: 0
Flags: HW
PickledData: "(dp1
S'org.robofab.postScriptHintData'
p2
(dp3
sS'com.typemytype.robofont.layerData'
p4
(dp5
s."
LayerCount: 2
Fore
SplineSet
159 1019 m 1
 269 1501 l 1
 395 1501 l 1
 349 1019 l 1
 159 1019 l 1
EndSplineSet
EndChar

StartChar: quoteright
Encoding: 8217 8217 323
Width: 525
VWidth: 0
Flags: HW
PickledData: "(dp1
S'org.robofab.postScriptHintData'
p2
(dp3
sS'com.typemytype.robofont.layerData'
p4
(dp5
s."
LayerCount: 2
Fore
SplineSet
159 1019 m 1
 206 1501 l 1
 395 1501 l 1
 287 1019 l 1
 159 1019 l 1
EndSplineSet
EndChar

StartChar: quotesinglbase
Encoding: 8218 8218 324
Width: 457
VWidth: 0
Flags: HW
PickledData: "(dp1
S'org.robofab.postScriptHintData'
p2
(dp3
s."
LayerCount: 2
Fore
SplineSet
99 -311 m 1
 153 162 l 1
 329 162 l 1
 218 -311 l 1
 99 -311 l 1
EndSplineSet
EndChar

StartChar: quotesingle
Encoding: 39 39 325
Width: 408
VWidth: 0
Flags: HW
PickledData: "(dp1
S'org.robofab.postScriptHintData'
p2
(dp3
s."
LayerCount: 2
Fore
SplineSet
149 959 m 1
 102 1501 l 1
 279 1501 l 1
 251 959 l 1
 149 959 l 1
EndSplineSet
EndChar

StartChar: r
Encoding: 114 114 326
Width: 783
VWidth: 0
Flags: HW
PickledData: "(dp1
S'org.pippin.gimp.org.kernagic'
p2
(dp3
S'lstem'
p4
I0
sS'rstem'
p5
I352
ssS'com.typemytype.robofont.layerData'
p6
(dp7
sS'com.fontlab.hintData'
p8
(dp9
S'vhints'
p10
((dp11
S'position'
p12
I193
sS'width'
p13
I122
s(dp14
g12
I193
sg13
I92
stp15
sS'hhints'
p16
((dp17
g12
I974
sg13
I94
stp18
ssS'org.robofab.postScriptHintData'
p19
(dp20
s."
HStem: 974 94
VStem: 193 122 193 92
AnchorPoint: "bot" 294 0 basechar 0
AnchorPoint: "top" 464 1082 basechar 0
LayerCount: 2
Fore
SplineSet
173 0 m 1
 173 1082 l 1
 317 1082 l 1
 334 856 l 1
 408 1035 524 1095 647 1095 c 0
 677 1095 701 1094 727 1090 c 1
 713 949 l 2
 712 949 672 950 671 950 c 0
 455 950 350 800 350 615 c 2
 350 0 l 1
 173 0 l 1
EndSplineSet
EndChar

StartChar: radical
Encoding: 8730 8730 328
Width: 1161
VWidth: 0
Flags: HW
PickledData: "(dp1
S'org.pippin.gimp.org.kernagic'
p2
(dp3
S'lstem'
p4
I0
sS'rstem'
p5
I0
ssS'com.typemytype.robofont.layerData'
p6
(dp7
S'b'
(dp8
S'name'
p9
S'radical'
p10
sS'lib'
p11
(dp12
sS'unicodes'
p13
(tsS'width'
p14
I1136
sS'contours'
p15
(tsS'components'
p16
(tsS'anchors'
p17
(tsssS'org.robofab.postScriptHintData'
p18
(dp19
s."
LayerCount: 2
Fore
SplineSet
543 -163 m 1
 214 749 l 1
 66 717 l 1
 51 836 l 1
 311 898 l 1
 409 618 514 347 602 59 c 1
 719 550 883 1212 1001 1704 c 1
 1126 1704 l 1
 688 -163 l 1
 543 -163 l 1
EndSplineSet
EndChar

StartChar: registered
Encoding: 174 174 331
Width: 1856
VWidth: 0
Flags: HW
PickledData: "(dp1
S'org.pippin.gimp.org.kernagic'
p2
(dp3
S'lstem'
p4
I0
sS'rstem'
p5
I0
ssS'com.typemytype.robofont.layerData'
p6
(dp7
sS'org.robofab.postScriptHintData'
p8
(dp9
s."
LayerCount: 2
Fore
SplineSet
920 -24 m 0
 545 -24 173 239 173 729 c 0
 173 1220 545 1483 920 1483 c 0
 1298 1483 1671 1220 1671 729 c 0
 1671 239 1298 -24 920 -24 c 0
920 66 m 0
 1249 66 1564 299 1564 729 c 0
 1564 1158 1249 1393 920 1393 c 0
 593 1393 282 1159 282 729 c 0
 282 299 593 66 920 66 c 0
746 820 m 1
 958 820 l 2
 1098 820 1143 862 1143 968 c 0
 1143 1094 1084 1110 924 1110 c 2
 746 1110 l 1
 746 820 l 1
630 296 m 1
 630 1210 l 1
 941 1210 l 2
 1170 1210 1254 1139 1254 973 c 0
 1254 839 1195 752 1063 736 c 1
 1077 718 1288 296 1288 296 c 1
 1160 296 l 1
 1160 296 957 713 949 723 c 1
 745 723 l 1
 745 296 l 1
 630 296 l 1
EndSplineSet
EndChar

StartChar: ring
Encoding: 730 730 332
Width: 708
VWidth: 0
Flags: HW
PickledData: "(dp1
S'org.robofab.postScriptHintData'
p2
(dp3
sS'com.typemytype.robofont.layerData'
p4
(dp5
s."
AnchorPoint: "top" 343 1067 mark 0
LayerCount: 2
Fore
SplineSet
344 1198 m 0
 232 1198 153 1281 153 1384 c 0
 153 1487 232 1569 344 1569 c 0
 457 1569 536 1486 536 1384 c 0
 536 1281 456 1198 344 1198 c 0
344 1280 m 0
 401 1280 442 1327 442 1383 c 0
 442 1437 401 1485 344 1485 c 0
 287 1485 247 1437 247 1383 c 0
 247 1326 286 1280 344 1280 c 0
EndSplineSet
EndChar

StartChar: s
Encoding: 115 115 333
Width: 981
VWidth: 0
Flags: HW
PickledData: "(dp1
S'org.pippin.gimp.org.kernagic'
p2
(dp3
S'lstem'
p4
I168
sS'rstem'
p5
I620
ssS'com.typemytype.robofont.layerData'
p6
(dp7
sS'com.typemytype.robofont.guides'
p8
((dp9
S'y'
I381
sS'x'
I77
sS'magnetic'
p10
I5
sS'angle'
p11
F90
sS'isGlobal'
p12
I00
stp13
sS'com.fontlab.hintData'
p14
(dp15
S'vhints'
p16
((dp17
S'position'
p18
I142
sS'width'
p19
I107
s(dp20
g18
I738
sg19
I104
stp21
sS'hhints'
p22
((dp23
g18
I-19
sg19
I92
s(dp24
g18
I982
sg19
I92
stp25
ssS'org.robofab.postScriptHintData'
p26
(dp27
s."
HStem: -19 92 982 92
VStem: 142 107 738 104
AnchorPoint: "bot" 477 1 basechar 0
AnchorPoint: "top" 506 1083 basechar 0
LayerCount: 2
Fore
SplineSet
504 -20 m 0
 334 -20 177 38 88 147 c 1
 180 238 l 1
 194 238 l 1
 281 140 403 110 504 110 c 0
 645 110 724 173 724 305 c 0
 724 378 699 425 534 477 c 2
 411 516 l 1
 152 597 116 686 116 816 c 0
 116 996 267 1106 507 1106 c 0
 680 1106 800 1040 864 951 c 1
 768 871 l 1
 758 871 l 1
 708 929 623 971 508 971 c 0
 357 971 292 913 292 815 c 0
 292 741 321 703 468 657 c 1
 589 618 l 2
 846 535 886 435 886 312 c 0
 886 78 714 -20 504 -20 c 0
EndSplineSet
EndChar

StartChar: section
Encoding: 167 167 339
Width: 1073
VWidth: 0
Flags: HW
PickledData: "(dp1
S'org.pippin.gimp.org.kernagic'
p2
(dp3
S'lstem'
p4
I0
sS'rstem'
p5
I0
ssS'com.typemytype.robofont.layerData'
p6
(dp7
S'b'
(dp8
S'name'
p9
S'section'
p10
sS'lib'
p11
(dp12
sS'unicodes'
p13
(tsS'width'
p14
I1079
sS'contours'
p15
(tsS'components'
p16
(tsS'anchors'
p17
(tsssS'org.robofab.postScriptHintData'
p18
(dp19
s."
LayerCount: 2
Fore
SplineSet
689 569 m 1
 717 597 734 638 734 691 c 0
 734 767 688 818 536 868 c 0
 420 906 399 914 390 919 c 1
 343 893 322 851 322 792 c 0
 322 707 355 683 496 635 c 1
 623 597 663 581 689 569 c 1
515 -23 m 0
 406 -23 288 7 188 56 c 1
 189 199 l 1
 302 144 410 109 522 109 c 0
 653 109 727 172 728 287 c 0
 728 366 686 416 420 504 c 0
 222 569 168 652 168 782 c 0
 168 864 201 936 260 987 c 1
 190 1041 167 1107 167 1190 c 0
 167 1369 297 1483 520 1483 c 0
 643 1483 751 1453 843 1406 c 1
 803 1281 l 1
 742 1312 645 1350 538 1350 c 0
 385 1350 328 1292 328 1196 c 0
 328 1111 359 1085 599 1008 c 0
 828 933 883 853 883 698 c 0
 883 610 854 545 808 496 c 1
 863 443 883 378 883 289 c 0
 883 65 714 -23 515 -23 c 0
EndSplineSet
EndChar

StartChar: semicolon
Encoding: 59 59 340
Width: 705
VWidth: 0
Flags: HW
PickledData: "(dp1
S'org.pippin.gimp.org.kernagic'
p2
(dp3
S'lstem'
p4
I0
sS'rstem'
p5
I0
ssS'com.typemytype.robofont.layerData'
p6
(dp7
sS'org.robofab.postScriptHintData'
p8
(dp9
s."
LayerCount: 2
Fore
SplineSet
368 834 m 0
 285 834 243 893 243 958 c 0
 243 1022 284 1083 368 1083 c 0
 450 1083 488 1022 488 958 c 0
 488 893 450 834 368 834 c 0
245 -305 m 1
 245 -305 284 227 284 237 c 1
 465 237 l 1
 465 149 l 2
 465 147 349 -305 349 -305 c 1
 245 -305 l 1
EndSplineSet
EndChar

StartChar: seven
Encoding: 55 55 341
Width: 1258
VWidth: 0
Flags: HW
PickledData: "(dp1
S'org.pippin.gimp.org.kernagic'
p2
(dp3
S'lstem'
p4
I0
sS'rstem'
p5
I0
ssS'com.typemytype.robofont.layerData'
p6
(dp7
sS'org.robofab.postScriptHintData'
p8
(dp9
s."
LayerCount: 2
Fore
SplineSet
346 0 m 1
 884 1311 l 1
 191 1311 l 1
 171 1456 l 1
 1073 1456 l 1
 1073 1325 l 1
 527 0 l 1
 346 0 l 1
EndSplineSet
EndChar

StartChar: six
Encoding: 54 54 342
Width: 1258
VWidth: 0
Flags: HW
PickledData: "(dp1
S'org.pippin.gimp.org.kernagic'
p2
(dp3
S'lstem'
p4
I0
sS'rstem'
p5
I0
ssS'com.typemytype.robofont.layerData'
p6
(dp7
sS'org.robofab.postScriptHintData'
p8
(dp9
s."
LayerCount: 2
Fore
SplineSet
647 121 m 0
 844 121 950 273 950 444 c 0
 950 623 842 754 652 754 c 0
 525 754 345 676 345 439 c 0
 345 269 451 121 647 121 c 0
650 -20 m 0
 344 -20 171 203 171 449 c 0
 171 665 249 806 385 992 c 2
 723 1456 l 1
 913 1456 l 1
 913 1434 l 1
 755 1218 597 1003 440 786 c 1
 504 841 593 890 714 890 c 0
 942 890 1125 715 1125 444 c 0
 1125 186 943 -20 650 -20 c 0
EndSplineSet
EndChar

StartChar: slash
Encoding: 47 47 343
Width: 972
VWidth: 0
Flags: HW
PickledData: "(dp1
S'org.pippin.gimp.org.kernagic'
p2
(dp3
S'lstem'
p4
I0
sS'rstem'
p5
I0
ssS'com.typemytype.robofont.layerData'
p6
(dp7
S'b'
(dp8
S'name'
p9
S'slash'
p10
sS'lib'
p11
(dp12
sS'unicodes'
p13
(tsS'width'
p14
I965
sS'contours'
p15
(tsS'components'
p16
(tsS'anchors'
p17
(tsssS'org.robofab.postScriptHintData'
p18
(dp19
s."
LayerCount: 2
Fore
SplineSet
128 -145 m 1
 745 1560 l 1
 895 1560 l 1
 275 -145 l 1
 128 -145 l 1
EndSplineSet
EndChar

StartChar: slashbar
Encoding: 65543 -1 344
Width: 845
VWidth: 0
Flags: HW
PickledData: "(dp1
S'org.pippin.gimp.org.kernagic'
p2
(dp3
S'lstem'
p4
I0
sS'rstem'
p5
I0
ssS'com.typemytype.robofont.layerData'
p6
(dp7
S'b'
(dp8
S'name'
p9
S'slashbar'
p10
sS'lib'
p11
(dp12
sS'unicodes'
p13
(tsS'width'
p14
I908
sS'contours'
p15
(tsS'components'
p16
(tsS'anchors'
p17
(tsssS'org.robofab.postScriptHintData'
p18
(dp19
s."
AnchorPoint: "mid" 474 719 mark 0
LayerCount: 2
Fore
SplineSet
180 492 m 1
 180 623 l 1
 769 948 l 1
 769 817 l 1
 180 492 l 1
EndSplineSet
EndChar

StartChar: sterling
Encoding: 163 163 346
Width: 1147
VWidth: 0
Flags: HW
PickledData: "(dp1
S'org.pippin.gimp.org.kernagic'
p2
(dp3
S'lstem'
p4
I0
sS'rstem'
p5
I0
ssS'com.typemytype.robofont.layerData'
p6
(dp7
S'b'
(dp8
S'name'
p9
S'sterling'
p10
sS'lib'
p11
(dp12
sS'unicodes'
p13
(tsS'width'
p14
I1136
sS'contours'
p15
((dp16
S'points'
p17
((dp18
S'segmentType'
p19
S'line'
p20
sS'x'
I20
sS'smooth'
p21
I00
sS'y'
I0
s(dp22
g19
S'line'
p23
sS'x'
I8
sg21
I00
sS'y'
I115
s(dp24
g19
S'line'
p25
sS'x'
I180
sg21
I00
sS'y'
I132
s(dp26
g19
S'line'
p27
sS'x'
I180
sg21
I00
sS'y'
I683
s(dp28
g19
S'line'
p29
sS'x'
I8
sg21
I00
sS'y'
I683
s(dp30
g19
S'line'
p31
sS'x'
I8
sg21
I00
sS'y'
I806
s(dp32
g19
S'line'
p33
sS'x'
I180
sg21
I00
sS'y'
I806
s(dp34
g19
S'line'
p35
sS'x'
I180
sg21
I01
sS'y'
I920
s(dp36
S'y'
I1183
sS'x'
I180
sg21
I00
s(dp37
S'y'
I1476
sS'x'
I245
sg21
I00
s(dp38
g19
S'curve'
p39
sS'x'
I598
sg21
I01
sS'y'
I1476
s(dp40
S'y'
I1476
sS'x'
I742
sg21
I00
s(dp41
S'y'
I1421
sS'x'
I854
sg21
I00
s(dp42
g19
S'curve'
p43
sS'x'
I939
sg21
I00
sS'y'
I1347
s(dp44
g19
S'line'
p45
sS'x'
I871
sg21
I00
sS'y'
I1229
s(dp46
S'y'
I1297
sS'x'
I785
sg21
I00
s(dp47
S'y'
I1334
sS'x'
I700
sg21
I00
s(dp48
g19
S'curve'
p49
sS'x'
I598
sg21
I01
sS'y'
I1334
s(dp50
S'y'
I1334
sS'x'
I397
sg21
I00
s(dp51
S'y'
I1179
sS'x'
I356
sg21
I00
s(dp52
g19
S'curve'
p53
sS'x'
I356
sg21
I01
sS'y'
I949
s(dp54
g19
S'line'
p55
sS'x'
I356
sg21
I00
sS'y'
I806
s(dp56
g19
S'line'
p57
sS'x'
I739
sg21
I00
sS'y'
I806
s(dp58
g19
S'line'
p59
sS'x'
I739
sg21
I00
sS'y'
I683
s(dp60
g19
S'line'
p61
sS'x'
I356
sg21
I00
sS'y'
I683
s(dp62
g19
S'line'
p63
sS'x'
I356
sg21
I00
sS'y'
I134
s(dp64
g19
S'line'
p65
sS'x'
I953
sg21
I00
sS'y'
I134
s(dp66
g19
S'line'
p67
sS'x'
I940
sg21
I00
sS'y'
I0
stp68
stp69
sS'components'
p70
(tsS'anchors'
p71
(tsssS'org.robofab.postScriptHintData'
p72
(dp73
s."
LayerCount: 2
Fore
SplineSet
88 0 m 1
 76 122 l 1
 250 140 l 1
 250 682 l 1
 75 682 l 1
 75 810 l 1
 250 810 l 1
 250 952 l 2
 250 1224 337 1483 671 1483 c 0
 848 1483 954 1409 1020 1346 c 1
 953 1228 l 1
 936 1228 l 1
 866 1285 801 1331 691 1331 c 0
 523 1331 438 1207 438 956 c 2
 438 810 l 1
 816 810 l 1
 816 682 l 1
 438 682 l 1
 438 142 l 1
 1028 142 l 1
 1016 0 l 1
 88 0 l 1
EndSplineSet
EndChar

StartChar: summation
Encoding: 8721 8721 347
Width: 1075
VWidth: 0
Flags: HW
PickledData: "(dp1
S'org.pippin.gimp.org.kernagic'
p2
(dp3
S'lstem'
p4
I0
sS'rstem'
p5
I0
ssS'com.typemytype.robofont.layerData'
p6
(dp7
S'b'
(dp8
S'name'
p9
S'summation'
p10
sS'lib'
p11
(dp12
sS'unicodes'
p13
(tsS'width'
p14
I1050
sS'contours'
p15
(tsS'components'
p16
(tsS'anchors'
p17
(tsssS'org.robofab.postScriptHintData'
p18
(dp19
s."
LayerCount: 2
Fore
SplineSet
67 -206 m 1
 67 -105 l 1
 577 621 l 1
 89 1355 l 1
 89 1460 l 1
 997 1460 l 1
 997 1308 l 1
 327 1308 l 1
 788 618 l 1
 306 -46 l 1
 1043 -46 l 1
 1043 -206 l 1
 67 -206 l 1
EndSplineSet
EndChar

StartChar: t
Encoding: 116 116 348
Width: 797
VWidth: 0
Flags: HW
PickledData: "(dp1
S'org.pippin.gimp.org.kernagic'
p2
(dp3
S'lstem'
p4
I189
sS'rstem'
p5
I480
ssS'com.typemytype.robofont.layerData'
p6
(dp7
sS'com.fontlab.hintData'
p8
(dp9
S'vhints'
p10
((dp11
S'position'
p12
I244
sS'width'
p13
I122
s(dp14
g12
I286
sg13
I80
stp15
sS'hhints'
p16
((dp17
g12
I-11
sg13
I83
stp18
ssS'org.robofab.postScriptHintData'
p19
(dp20
s."
HStem: -11 83
VStem: 244 122 286 80
AnchorPoint: "mid" 365 630 basechar 0
AnchorPoint: "bot" 474 0 basechar 0
AnchorPoint: "top" 332 1373 basechar 0
LayerCount: 2
Fore
SplineSet
582 -8 m 2
 282 -8 231 74 231 331 c 2
 231 973 l 1
 61 973 l 1
 66 1072 l 1
 236 1081 l 1
 262 1373 l 1
 410 1384 l 1
 410 1082 l 1
 699 1082 l 1
 699 973 l 1
 410 973 l 1
 410 330 l 2
 410 160 424 127 583 121 c 0
 586 121 692 118 692 118 c 1
 685 -8 l 1
 582 -8 l 2
EndSplineSet
EndChar

StartChar: thorn
Encoding: 254 254 352
Width: 1217
VWidth: 0
Flags: HW
PickledData: "(dp1
S'org.pippin.gimp.org.kernagic'
p2
(dp3
S'lstem'
p4
I0
sS'rstem'
p5
I0
ssS'com.typemytype.robofont.layerData'
p6
(dp7
S'b'
(dp8
S'name'
p9
S'thorn'
p10
sS'lib'
p11
(dp12
sS'unicodes'
p13
(tsS'width'
p14
I1221
sS'contours'
p15
(tsS'components'
p16
(tsS'anchors'
p17
(tsssS'org.robofab.postScriptHintData'
p18
(dp19
s."
LayerCount: 2
Fore
SplineSet
627 112 m 0
 829 112 916 279 916 542 c 0
 916 792 851 972 645 972 c 0
 430 972 337 810 337 560 c 2
 337 252 l 1
 402 159 504 112 627 112 c 0
165 -463 m 1
 165 1540 l 1
 343 1560 l 1
 343 1109 l 1
 337 881 l 1
 410 1059 544 1106 671 1106 c 0
 965 1106 1099 872 1099 543 c 0
 1099 205 933 -20 637 -20 c 0
 504 -20 403 29 337 99 c 1
 337 -463 l 1
 165 -463 l 1
EndSplineSet
EndChar

StartChar: three
Encoding: 51 51 353
Width: 1244
VWidth: 0
Flags: HW
PickledData: "(dp1
S'org.pippin.gimp.org.kernagic'
p2
(dp3
S'lstem'
p4
I0
sS'rstem'
p5
I0
ssS'com.typemytype.robofont.layerData'
p6
(dp7
sS'org.robofab.postScriptHintData'
p8
(dp9
s."
LayerCount: 2
Fore
SplineSet
617 -20 m 0
 459 -20 271 38 175 205 c 1
 278 291 l 1
 292 291 l 1
 371 165 511 131 614 131 c 0
 777 131 904 212 904 391 c 0
 904 624 760 690 501 690 c 2
 452 690 l 1
 428 836 l 1
 502 836 l 1
 665 837 867 867 867 1096 c 0
 867 1238 784 1325 607 1325 c 0
 482 1325 371 1278 291 1150 c 1
 272 1150 l 1
 169 1234 l 1
 267 1433 487 1476 623 1476 c 0
 887 1476 1041 1328 1041 1098 c 0
 1041 932 954 812 769 770 c 1
 974 734 1082 585 1082 384 c 0
 1082 164 918 -20 617 -20 c 0
EndSplineSet
EndChar

StartChar: threequarters
Encoding: 190 190 354
Width: 1748
VWidth: 0
Flags: HW
PickledData: "(dp1
S'org.pippin.gimp.org.kernagic'
p2
(dp3
S'lstem'
p4
I0
sS'rstem'
p5
I0
ssS'com.typemytype.robofont.layerData'
p6
(dp7
sS'org.robofab.postScriptHintData'
p8
(dp9
s."
LayerCount: 2
Fore
SplineSet
1176 299 m 1
 1435 299 l 1
 1435 688 l 1
 1176 299 l 1
428 0 m 1
 1343 1481 l 1
 1480 1481 l 1
 566 0 l 1
 428 0 l 1
1436 0 m 1
 1436 191 l 1
 1035 191 l 1
 1035 287 l 1
 1426 858 l 1
 1566 858 l 1
 1566 299 l 1
 1679 299 l 1
 1685 191 l 1
 1565 191 l 1
 1565 0 l 1
 1436 0 l 1
357 595 m 0
 275 595 189 621 121 669 c 1
 168 769 l 1
 226 733 296 711 357 711 c 0
 441 711 508 751 508 853 c 0
 508 949 451 999 334 999 c 1
 239 998 l 1
 239 1112 l 1
 332 1112 l 2
 430 1112 489 1161 489 1242 c 0
 489 1322 436 1363 357 1363 c 0
 303 1363 238 1343 171 1303 c 1
 120 1396 l 1
 188 1449 279 1478 365 1478 c 0
 500 1478 621 1410 621 1261 c 0
 621 1187 583 1087 479 1064 c 1
 582 1034 641 953 641 856 c 0
 641 678 504 595 357 595 c 0
EndSplineSet
Ligature2: "'frac' Diagonal Fractions lookup 11 subtable" three slash four
EndChar

StartChar: tilde
Encoding: 732 732 355
Width: 991
VWidth: 0
Flags: HW
PickledData: "(dp1
S'org.robofab.postScriptHintData'
p2
(dp3
sS'com.typemytype.robofont.layerData'
p4
(dp5
sS'com.fontlab.hintData'
p6
(dp7
S'vhints'
p8
((dp9
S'position'
p10
I169
sS'width'
p11
I63
s(dp12
g10
I657
sg11
I67
stp13
sS'hhints'
p14
((dp15
g10
I1301
sg11
I88
s(dp16
g10
I1400
sg11
I79
stp17
ss."
HStem: 1301 88 1400 79
VStem: 169 63 657 67
AnchorPoint: "top" 494 1067 mark 0
LayerCount: 2
Fore
SplineSet
174 1295 m 1
 174 1434 236 1507 339 1507 c 0
 460 1507 563 1419 626 1419 c 0
 657 1419 678 1441 687 1506 c 1
 781 1506 l 1
 781 1369 722 1295 631 1295 c 0
 526 1295 407 1394 333 1394 c 0
 298 1394 274 1366 265 1295 c 1
 174 1295 l 1
EndSplineSet
EndChar

StartChar: trademark
Encoding: 8482 8482 356
Width: 2190
VWidth: 0
Flags: HW
PickledData: "(dp1
S'org.robofab.postScriptHintData'
p2
(dp3
sS'com.typemytype.robofont.layerData'
p4
(dp5
S'b'
(dp6
S'name'
p7
S'trademark'
p8
sS'lib'
p9
(dp10
sS'unicodes'
p11
(tsS'width'
p12
I2216
sS'contours'
p13
(tsS'components'
p14
(tsS'anchors'
p15
(tsss."
LayerCount: 2
Fore
SplineSet
391 522 m 1
 391 1341 l 1
 82 1341 l 1
 82 1456 l 1
 843 1456 l 1
 843 1341 l 1
 533 1341 l 1
 533 522 l 1
 391 522 l 1
970 522 m 1
 988 1456 l 1
 1137 1456 l 1
 1462 791 l 1
 1786 1456 l 1
 1931 1456 l 1
 1949 522 l 1
 1823 522 l 1
 1815 1263 l 1
 1510 633 l 1
 1410 633 l 1
 1105 1270 l 1
 1098 522 l 1
 970 522 l 1
EndSplineSet
EndChar

StartChar: two
Encoding: 50 50 357
Width: 1258
VWidth: 0
Flags: HW
PickledData: "(dp1
S'org.pippin.gimp.org.kernagic'
p2
(dp3
S'lstem'
p4
I0
sS'rstem'
p5
I0
ssS'com.typemytype.robofont.layerData'
p6
(dp7
sS'org.robofab.postScriptHintData'
p8
(dp9
s."
LayerCount: 2
Fore
SplineSet
174 0 m 1
 144 155 l 1
 686 689 l 2
 827 827 890 893 890 1055 c 0
 890 1247 744 1326 592 1326 c 0
 469 1326 340 1277 264 1193 c 1
 245 1193 l 1
 158 1297 l 1
 259 1409 425 1476 595 1476 c 0
 841 1476 1062 1340 1062 1060 c 0
 1062 857 992 761 795 573 c 2
 352 149 l 1
 1046 149 l 1
 1037 0 l 1
 174 0 l 1
EndSplineSet
EndChar

StartChar: u
Encoding: 117 117 358
Width: 1211
VWidth: 0
Flags: HW
PickledData: "(dp1
S'org.pippin.gimp.org.kernagic'
p2
(dp3
S'lstem'
p4
I0
sS'rstem'
p5
I0
ssS'com.typemytype.robofont.layerData'
p6
(dp7
sS'com.fontlab.hintData'
p8
(dp9
S'vhints'
p10
((dp11
S'position'
p12
I162
sS'width'
p13
I166
s(dp14
g12
I862
sg13
I166
stp15
sS'hhints'
p16
((dp17
g12
I-21
sg13
I126
stp18
ssS'org.robofab.postScriptHintData'
p19
(dp20
s."
HStem: -21 126
VStem: 162 166 862 166
AnchorPoint: "bot" 570 1 basechar 0
AnchorPoint: "ogonek" 964 1 basechar 0
AnchorPoint: "top" 621 1083 basechar 0
LayerCount: 2
Fore
SplineSet
543 -20 m 0
 288 -20 155 121 155 405 c 2
 155 1082 l 1
 333 1082 l 1
 333 407 l 2
 333 219 396 110 567 110 c 0
 739 110 825 202 867 258 c 1
 867 1082 l 1
 1044 1082 l 1
 1044 0 l 1
 890 0 l 1
 880 136 l 1
 808 43 703 -20 543 -20 c 0
EndSplineSet
EndChar

StartChar: underscore
Encoding: 95 95 366
Width: 904
VWidth: 0
Flags: HW
PickledData: "(dp1
S'org.pippin.gimp.org.kernagic'
p2
(dp3
S'lstem'
p4
I0
sS'rstem'
p5
I0
ssS'com.typemytype.robofont.layerData'
p6
(dp7
sS'org.robofab.postScriptHintData'
p8
(dp9
s."
LayerCount: 2
Fore
SplineSet
0 -262 m 1
 0 -135 l 1
 904 -135 l 1
 904 -262 l 1
 0 -262 l 1
EndSplineSet
EndChar

StartChar: uni00AD
Encoding: 173 173 369
Width: 891
VWidth: 0
Flags: HW
PickledData: "(dp1
S'org.robofab.postScriptHintData'
p2
(dp3
s."
LayerCount: 2
Fore
SplineSet
107 478 m 1
 107 619 l 1
 783 619 l 1
 783 478 l 1
 107 478 l 1
EndSplineSet
EndChar

StartChar: uni00B2
Encoding: 178 178 370
Width: 783
VWidth: 0
Flags: HW
PickledData: "(dp1
S'org.robofab.postScriptHintData'
p2
(dp3
sS'com.typemytype.robofont.layerData'
p4
(dp5
s."
LayerCount: 2
Fore
SplineSet
152 649 m 1
 152 754 l 1
 256 858 309 889 435 1028 c 0
 503 1107 549 1179 549 1237 c 0
 549 1328 486 1390 399 1390 c 0
 301 1390 227 1352 173 1283 c 1
 110 1368 l 1
 178 1456 275 1502 406 1502 c 0
 547 1502 674 1410 674 1240 c 0
 674 1126 623 1037 530 941 c 0
 452 863 441 858 333 754 c 1
 673 754 l 1
 664 649 l 1
 152 649 l 1
EndSplineSet
EndChar

StartChar: uni00B3
Encoding: 179 179 371
Width: 876
VWidth: 0
Flags: HW
PickledData: "(dp1
S'org.robofab.postScriptHintData'
p2
(dp3
sS'com.typemytype.robofont.layerData'
p4
(dp5
s."
LayerCount: 2
Fore
SplineSet
437 631 m 0
 335 631 234 661 169 717 c 1
 219 808 l 1
 267 762 341 731 434 731 c 0
 533 731 613 780 613 879 c 0
 613 971 548 1035 427 1035 c 1
 313 1034 l 1
 313 1130 l 1
 428 1130 l 2
 552 1130 602 1187 602 1269 c 0
 602 1358 531 1398 438 1398 c 0
 349 1398 278 1370 222 1325 c 1
 174 1406 l 1
 240 1465 345 1499 454 1499 c 0
 593 1499 718 1436 718 1278 c 0
 717 1180 662 1107 566 1085 c 1
 660 1063 727 985 727 876 c 0
 727 710 590 631 437 631 c 0
EndSplineSet
EndChar

StartChar: uni00B5
Encoding: 181 181 372
Width: 1196
VWidth: 0
Flags: HW
PickledData: "(dp1
S'org.robofab.postScriptHintData'
p2
(dp3
sS'com.typemytype.robofont.layerData'
p4
(dp5
s."
LayerCount: 2
Fore
SplineSet
1044 1082 m 1
 1044 0 l 1
 890 0 l 1
 880 136 l 1
 808 43 703 -20 543 -20 c 0
 460 -20 390 -5 333 25 c 1
 333 -291 l 1
 155 -291 l 1
 155 1082 l 1
 333 1082 l 1
 333 407 l 2
 333 219 396 110 567 110 c 0
 739 110 825 202 867 258 c 1
 867 1082 l 1
 1044 1082 l 1
EndSplineSet
EndChar

StartChar: uni00B9
Encoding: 185 185 373
Width: 885
VWidth: 0
Flags: HW
PickledData: "(dp1
S'org.robofab.postScriptHintData'
p2
(dp3
sS'com.typemytype.robofont.layerData'
p4
(dp5
s."
LayerCount: 2
Fore
SplineSet
263 632 m 1
 263 742 l 1
 435 742 l 1
 435 1345 l 1
 397 1322 291 1278 257 1270 c 1
 257 1382 l 1
 311 1402 426 1456 463 1488 c 1
 574 1488 l 1
 574 742 l 1
 741 742 l 1
 741 632 l 1
 263 632 l 1
EndSplineSet
EndChar

StartChar: uni02C9
Encoding: 713 713 436
Width: 600
VWidth: 0
Flags: HW
PickledData: "(dp1
S'org.robofab.postScriptHintData'
p2
(dp3
s."
AnchorPoint: "top" 308 1067 mark 0
LayerCount: 2
Fore
SplineSet
-7 1315 m 1
 -7 1444 l 1
 600 1444 l 1
 600 1315 l 1
 -7 1315 l 1
EndSplineSet
EndChar

StartChar: uni0307
Encoding: 775 775 437
Width: 430
VWidth: 0
Flags: HW
PickledData: "(dp1
S'org.robofab.postScriptHintData'
p2
(dp3
sS'com.typemytype.robofont.layerData'
p4
(dp5
s."
LayerCount: 2
Fore
SplineSet
221 1332 m 0
 141 1332 96 1376 96 1452 c 0
 96 1526 141 1569 221 1569 c 0
 301 1569 346 1526 346 1452 c 0
 346 1376 301 1332 221 1332 c 0
EndSplineSet
EndChar

StartChar: uni2074
Encoding: 8308 8308 456
Width: 701
VWidth: 0
Flags: HW
PickledData: "(dp1
S'org.robofab.postScriptHintData'
p2
(dp3
sS'com.typemytype.robofont.layerData'
p4
(dp5
s."
LayerCount: 2
Fore
SplineSet
180 930 m 1
 411 930 l 1
 412 1330 l 1
 180 930 l 1
411 622 m 1
 411 830 l 1
 50 830 l 1
 50 936 l 1
 403 1490 l 1
 535 1490 l 1
 535 930 l 1
 655 930 l 1
 649 830 l 1
 533 830 l 1
 534 622 l 1
 411 622 l 1
EndSplineSet
EndChar

StartChar: uni2113
Encoding: 8467 8467 457
Width: 1213
VWidth: 0
Flags: HW
PickledData: "(dp1
S'org.robofab.postScriptHintData'
p2
(dp3
s."
LayerCount: 2
Fore
SplineSet
627 800 m 1
 629 802 839 968 839 968 c 1
 1001 1098 1100 1219 1100 1386 c 0
 1100 1462 1058 1541 964 1541 c 0
 850 1541 779 1391 727 1187 c 2
 627 800 l 1
560 -20 m 0
 406 -20 304 62 304 262 c 0
 304 327 316 405 340 494 c 1
 125 334 l 1
 79 413 l 1
 379 638 l 1
 585 1396 l 2
 647 1622 786 1688 920 1688 c 0
 1072 1687 1218 1594 1218 1388 c 0
 1218 1178 1123 1061 879 865 c 2
 585 628 l 1
 533 417 l 2
 518 358 511 308 511 267 c 0
 511 175 551 130 638 130 c 0
 720 130 809 163 912 218 c 1
 936 98 l 1
 936 98 786 -20 560 -20 c 0
EndSplineSet
EndChar

StartChar: uni2126
Encoding: 8486 8486 458
Width: 1740
VWidth: 0
Flags: HW
PickledData: "(dp1
S'org.robofab.postScriptHintData'
p2
(dp3
s."
LayerCount: 2
Fore
SplineSet
112 0 m 1
 112 157 l 1
 482 157 l 1
 272 281 117 498 117 792 c 0
 117 1148 399 1482 873 1482 c 0
 1343 1482 1622 1149 1622 794 c 0
 1622 500 1467 282 1260 157 c 1
 1628 157 l 1
 1628 0 l 1
 959 0 l 1
 959 157 l 1
 1183 252 1384 469 1384 759 c 0
 1384 1045 1183 1283 873 1283 c 0
 556 1283 356 1046 356 759 c 0
 356 469 552 251 787 157 c 1
 787 0 l 1
 112 0 l 1
EndSplineSet
EndChar

StartChar: uni2206
Encoding: 8710 8710 459
Width: 1286
VWidth: 0
Flags: HW
PickledData: "(dp1
S'org.pippin.gimp.org.kernagic'
p2
(dp3
S'lstem'
p4
I0
sS'rstem'
p5
I0
ssS'com.typemytype.robofont.layerData'
p6
(dp7
S'b'
(dp8
S'name'
p9
S'uni2206'
p10
sS'lib'
p11
(dp12
sS'unicodes'
p13
(tsS'width'
p14
I1278
sS'contours'
p15
(tsS'components'
p16
(tsS'anchors'
p17
(tsssS'org.robofab.postScriptHintData'
p18
(dp19
s."
LayerCount: 2
Fore
SplineSet
259 171 m 1
 1027 171 l 1
 673 1201 l 1
 639 1318 l 1
 607 1201 l 1
 259 171 l 1
67 0 m 1
 67 85 l 1
 552 1540 l 1
 736 1540 l 1
 1220 85 l 1
 1220 0 l 1
 67 0 l 1
EndSplineSet
EndChar

StartChar: v
Encoding: 118 118 470
Width: 1079
VWidth: 0
Flags: HW
PickledData: "(dp1
S'org.pippin.gimp.org.kernagic'
p2
(dp3
S'lstem'
p4
I0
sS'rstem'
p5
I0
ssS'com.typemytype.robofont.guides'
p6
((dp7
S'y'
I552
sS'x'
I438
sS'magnetic'
p8
I5
sS'angle'
p9
I0
sS'isGlobal'
p10
I00
stp11
sS'com.typemytype.robofont.layerData'
p12
(dp13
sS'org.robofab.postScriptHintData'
p14
(dp15
s."
LayerCount: 2
Fore
SplineSet
453 0 m 1
 61 1082 l 1
 244 1082 l 1
 344 789 443 495 547 207 c 1
 646 498 745 790 843 1082 c 1
 1022 1082 l 1
 635 0 l 1
 453 0 l 1
EndSplineSet
EndChar

StartChar: w
Encoding: 119 119 471
Width: 1508
VWidth: 0
Flags: HW
PickledData: "(dp1
S'org.pippin.gimp.org.kernagic'
p2
(dp3
S'lstem'
p4
I0
sS'rstem'
p5
I0
ssS'com.typemytype.robofont.layerData'
p6
(dp7
sS'org.robofab.postScriptHintData'
p8
(dp9
s."
AnchorPoint: "top" 759 1082 basechar 0
LayerCount: 2
Fore
SplineSet
321 -1 m 1
 26 1082 l 1
 193 1082 l 1
 410 232 l 1
 663 1081 l 1
 849 1081 l 1
 1117 229 l 1
 1320 1082 l 1
 1482 1082 l 1
 1200 -1 l 1
 1040 -1 l 1
 760 910 l 1
 480 -1 l 1
 321 -1 l 1
EndSplineSet
EndChar

StartChar: x
Encoding: 120 120 476
Width: 1056
VWidth: 0
Flags: HW
PickledData: "(dp1
S'org.pippin.gimp.org.kernagic'
p2
(dp3
S'lstem'
p4
I0
sS'rstem'
p5
I0
ssS'com.typemytype.robofont.layerData'
p6
(dp7
sS'com.fontlab.hintData'
p8
(dp9
S'hhints'
p10
((dp11
S'position'
p12
I0
sS'width'
p13
I22
s(dp14
g12
I1034
sg13
I21
stp15
ssS'org.robofab.postScriptHintData'
p16
(dp17
s."
HStem: 0 22 1034 21
LayerCount: 2
Fore
SplineSet
52 -1 m 1
 433 548 l 1
 74 1082 l 1
 272 1082 l 1
 544 677 l 1
 817 1082 l 1
 997 1082 l 1
 631 550 l 1
 1001 -1 l 1
 802 -1 l 1
 519 422 l 1
 232 -1 l 1
 52 -1 l 1
EndSplineSet
EndChar

StartChar: y
Encoding: 121 121 477
Width: 1129
VWidth: 0
Flags: HW
PickledData: "(dp1
S'org.pippin.gimp.org.kernagic'
p2
(dp3
S'lstem'
p4
I0
sS'rstem'
p5
I0
ssS'com.typemytype.robofont.layerData'
p6
(dp7
sS'org.robofab.postScriptHintData'
p8
(dp9
s."
AnchorPoint: "top" 581 1082 basechar 0
LayerCount: 2
Fore
SplineSet
483 -413 m 1
 330 -374 l 1
 491 44 l 1
 40 1082 l 1
 227 1082 l 1
 579 240 l 1
 908 1082 l 1
 1080 1082 l 1
 483 -413 l 1
EndSplineSet
EndChar

StartChar: yen
Encoding: 165 165 481
Width: 1359
VWidth: 0
Flags: HW
PickledData: "(dp1
S'org.pippin.gimp.org.kernagic'
p2
(dp3
S'lstem'
p4
I0
sS'rstem'
p5
I0
ssS'com.typemytype.robofont.layerData'
p6
(dp7
S'b'
(dp8
S'name'
p9
S'yen'
p10
sS'lib'
p11
(dp12
sS'unicodes'
p13
(tsS'width'
p14
I1366
sS'contours'
p15
(tsS'components'
p16
(tsS'anchors'
p17
(tsssS'org.robofab.postScriptHintData'
p18
(dp19
s."
LayerCount: 2
Fore
SplineSet
587 0 m 1
 777 0 l 1
 777 259 l 1
 1077 259 l 1
 1077 367 l 1
 777 367 l 1
 777 514 l 1
 1077 514 l 1
 1077 623 l 1
 834 623 l 1
 1282 1456 l 1
 1092 1456 l 1
 681 684 l 1
 256 1456 l 1
 76 1456 l 1
 531 623 l 1
 259 623 l 1
 259 514 l 1
 587 514 l 1
 587 367 l 1
 259 367 l 1
 259 259 l 1
 587 259 l 1
 587 0 l 1
EndSplineSet
EndChar

StartChar: z
Encoding: 122 122 483
Width: 1007
VWidth: 0
Flags: HW
PickledData: "(dp1
S'org.pippin.gimp.org.kernagic'
p2
(dp3
S'lstem'
p4
I0
sS'rstem'
p5
I0
ssS'com.typemytype.robofont.layerData'
p6
(dp7
sS'org.robofab.postScriptHintData'
p8
(dp9
s."
AnchorPoint: "bot" 481 0 basechar 0
AnchorPoint: "top" 510 1082 basechar 0
LayerCount: 2
Fore
SplineSet
102 0 m 1
 102 114 l 1
 698 955 l 1
 127 955 l 1
 122 1082 l 1
 885 1082 l 1
 885 961 l 1
 299 133 l 1
 888 133 l 1
 895 0 l 1
 102 0 l 1
EndSplineSet
EndChar

StartChar: zero
Encoding: 48 48 487
Width: 1259
VWidth: 0
Flags: HW
PickledData: "(dp1
S'org.pippin.gimp.org.kernagic'
p2
(dp3
S'lstem'
p4
I0
sS'rstem'
p5
I0
ssS'com.typemytype.robofont.layerData'
p6
(dp7
S'b'
(dp8
S'name'
p9
S'zero'
p10
sS'lib'
p11
(dp12
sS'unicodes'
p13
(tsS'width'
p14
I1248
sS'contours'
p15
(tsS'components'
p16
(tsS'anchors'
p17
(tsssS'org.robofab.postScriptHintData'
p18
(dp19
s."
LayerCount: 2
Fore
SplineSet
634 -20 m 0
 289 -20 132 260 132 706 c 0
 132 1174 304 1476 634 1476 c 0
 964 1476 1127 1175 1127 706 c 0
 1127 260 979 -20 634 -20 c 0
634 132 m 0
 830 132 945 292 945 712 c 0
 945 1137 830 1325 634 1325 c 0
 438 1325 314 1111 314 711 c 0
 314 292 438 132 634 132 c 0
EndSplineSet
EndChar
